<svg xmlns="http://www.w3.org/2000/svg" width="1145" height="916" viewBox="0 0 1145 916">
<g>
<path d="M 494.28 408.94 C489.70,410.21 489.59,410.21 484.12,408.50 C479.05,406.92 473.37,401.92 471.38,397.28 C469.52,392.96 469.64,385.62 471.62,381.70 C475.54,373.94 480.85,370.65 489.50,370.65 C498.43,370.65 504.16,374.35 507.45,382.23 C511.80,392.64 505.26,405.89 494.28,408.94 ZM 545.50 408.90 C541.00,410.12 540.51,410.13 536.99,409.07 C528.90,406.60 523.92,401.57 522.00,393.90 C518.54,380.18 532.16,367.27 546.13,371.04 C554.80,373.37 560.25,380.41 560.33,389.39 C560.41,398.61 554.45,406.45 545.50,408.90 ZM 447.26 406.87 C442.54,409.28 437.33,410.15 433.99,409.10 C426.03,406.58 420.77,401.56 418.93,394.75 C413.96,376.27 436.23,362.60 450.66,375.28 C455.23,379.29 457.00,383.47 457.00,390.27 C457.00,397.04 452.93,403.98 447.26,406.87 ZM 713.28 471.94 C708.54,473.26 707.36,473.22 702.89,471.62 C693.87,468.40 689.00,461.87 689.00,453.01 C689.00,446.45 690.82,442.25 695.37,438.25 C699.85,434.31 702.26,433.66 710.32,434.17 C714.85,434.46 717.50,435.22 719.91,436.93 C723.82,439.72 727.99,448.02 727.97,453.00 C727.94,460.81 720.96,469.81 713.28,471.94 ZM 666.92 469.22 C656.45,475.64 644.74,472.12 638.91,460.79 C635.68,454.52 636.98,445.00 641.79,439.68 C646.56,434.40 659.46,432.11 665.80,435.40 C678.73,442.13 679.38,461.57 666.92,469.22 ZM 614.73 469.86 C606.60,474.88 595.54,472.50 589.36,464.40 C587.28,461.68 586.51,459.37 586.19,454.94 C585.64,447.36 586.34,444.82 590.16,440.47 C594.56,435.46 597.93,434.00 605.11,434.00 C615.50,434.00 622.61,439.93 624.51,450.18 C625.77,456.96 621.41,465.73 614.73,469.86 ZM 552.92 353.67 C545.89,358.32 537.09,357.19 531.32,350.88 C524.46,343.40 526.24,331.11 534.96,325.72 C539.79,322.73 548.74,322.68 552.70,325.61 C562.48,332.85 562.59,347.27 552.92,353.67 ZM 609.03 517.75 C603.44,520.57 601.73,520.55 595.40,517.61 C588.94,514.60 585.90,510.01 585.85,503.17 C585.78,494.80 590.15,489.02 598.16,486.88 C617.56,481.69 627.05,508.65 609.03,517.75 ZM 657.46 514.60 C649.81,520.43 638.45,518.04 633.47,509.54 C626.75,498.07 634.49,485.00 648.00,485.00 C657.75,485.00 664.00,491.36 664.00,501.28 C664.00,507.19 662.10,511.06 657.46,514.60 ZM 700.57 512.51 C695.24,515.64 689.80,515.70 684.53,512.72 C678.62,509.37 676.00,504.88 676.00,498.08 C676.00,487.50 682.97,481.40 694.14,482.20 C698.92,482.55 700.58,483.17 703.12,485.56 C711.69,493.62 710.45,506.72 700.57,512.51 ZM 462.08 358.73 C454.99,363.50 443.86,360.46 439.23,352.48 C437.40,349.34 437.00,347.39 437.29,343.21 C437.92,334.45 443.43,328.96 452.32,328.22 C459.50,327.63 464.27,329.90 467.53,335.47 C472.41,343.79 470.19,353.26 462.08,358.73 ZM 507.86 355.10 C503.73,358.04 495.65,358.73 491.50,356.48 C484.70,352.81 482.00,348.46 482.00,341.20 C482.00,332.25 488.27,325.89 497.74,325.23 C502.55,324.89 504.06,325.21 506.91,327.16 C511.95,330.62 514.22,334.27 514.75,339.75 C515.32,345.71 512.64,351.70 507.86,355.10 ZM 391.92 535.65 C389.47,537.75 388.46,537.33 384.12,532.40 C379.88,527.58 375.98,518.84 376.02,514.21 C376.05,510.60 379.16,504.03 382.13,501.30 C387.95,495.95 398.09,494.50 405.63,497.92 C410.15,499.97 415.13,506.29 417.49,512.96 C418.86,516.87 418.84,516.98 416.08,518.94 C412.85,521.25 412.00,520.80 412.00,516.80 C412.00,509.20 405.62,502.00 398.89,502.00 C389.90,502.00 383.00,507.93 383.00,515.64 C383.00,520.45 384.06,523.19 387.26,526.71 C389.08,528.70 389.52,528.78 391.88,527.55 C393.32,526.80 395.59,525.02 396.92,523.60 C398.26,522.17 399.64,521.00 399.99,521.00 C400.34,521.00 401.64,522.80 402.88,525.01 C405.01,528.79 405.03,529.04 403.32,529.59 C400.57,530.47 393.71,534.12 391.92,535.65 ZM 377.27 413.93 C369.15,416.28 360.59,419.03 358.25,420.04 L 354.00 421.89 L 354.00 416.88 C354.00,412.50 354.23,411.94 355.81,412.44 C357.60,413.01 378.82,407.55 380.24,406.15 C381.29,405.12 361.42,395.00 358.33,395.00 C355.85,395.00 355.76,394.81 356.25,390.45 C356.53,387.95 357.01,385.65 357.32,385.35 C357.62,385.05 359.36,385.92 361.18,387.29 C363.01,388.65 370.80,393.05 378.50,397.05 C386.20,401.06 392.67,404.46 392.87,404.62 C393.07,404.78 392.97,405.98 392.64,407.28 C392.12,409.38 390.31,410.16 377.27,413.93 ZM 660.00 618.17 C660.00,618.60 658.65,619.65 657.00,620.50 C654.33,621.88 654.00,621.89 654.00,620.53 C654.00,619.69 651.68,613.81 648.85,607.46 C645.13,599.10 643.01,595.54 641.17,594.58 L 638.62 593.25 L 641.69 591.66 C644.73,590.09 644.86,590.13 656.63,596.52 C663.16,600.07 668.81,602.98 669.19,602.99 C669.85,603.00 667.10,596.25 662.88,587.51 C661.06,583.75 661.05,583.44 662.66,582.26 C663.61,581.57 664.63,581.01 664.94,581.02 C665.25,581.03 667.48,585.65 669.90,591.27 C672.32,596.90 675.32,603.41 676.57,605.74 L 678.85 609.99 L 676.74 611.47 C674.83,612.81 674.31,612.76 671.56,610.95 C666.47,607.62 651.91,599.75 651.56,600.14 C651.07,600.68 657.50,614.90 658.84,616.24 C659.48,616.88 660.00,617.75 660.00,618.17 ZM 502.87 621.25 C502.22,623.31 501.17,625.00 500.53,625.00 C497.60,625.00 496.24,621.89 494.06,610.25 C492.80,603.51 491.44,598.00 491.03,598.00 C490.34,598.00 485.33,608.23 483.06,614.29 C482.13,616.80 481.79,616.96 479.76,615.90 C478.52,615.26 477.38,614.63 477.23,614.51 C477.08,614.39 479.67,608.72 482.99,601.90 C487.56,592.50 488.87,588.84 488.43,586.75 C488.11,585.24 488.08,584.00 488.37,584.00 C490.10,584.00 494.03,586.55 494.40,587.90 C494.63,588.78 496.03,594.79 497.49,601.26 C498.96,607.73 500.51,612.80 500.94,612.54 C501.37,612.27 503.44,608.11 505.56,603.28 C507.67,598.45 509.53,594.31 509.70,594.09 C509.86,593.86 511.04,594.15 512.31,594.73 L 514.63 595.79 L 509.34 606.64 C506.43,612.62 503.52,619.19 502.87,621.25 ZM 402.22 358.15 C401.84,361.34 400.68,362.23 398.96,360.66 C398.16,359.94 392.63,357.15 386.68,354.48 C376.95,350.10 375.56,349.73 372.85,350.75 C370.16,351.77 369.90,351.70 370.53,350.20 C370.91,349.26 371.44,347.75 371.71,346.83 C372.18,345.20 379.36,342.89 393.30,339.90 C396.48,339.22 399.28,338.36 399.51,337.98 C400.00,337.19 383.84,330.00 381.56,330.00 C379.65,330.00 379.55,328.00 381.33,325.56 C382.56,323.89 382.87,323.86 385.08,325.27 C388.74,327.60 408.56,336.00 410.39,336.00 C412.47,336.00 412.43,337.25 410.25,339.92 C408.92,341.53 405.62,342.65 396.60,344.51 C390.05,345.86 384.48,347.19 384.21,347.46 C383.73,347.94 389.10,350.51 398.00,354.06 C401.70,355.53 402.45,356.26 402.22,358.15 ZM 563.78 633.92 C563.63,636.35 563.05,638.44 562.50,638.55 C559.68,639.13 557.89,636.97 552.46,626.46 C549.20,620.16 546.21,615.00 545.81,615.00 C544.93,615.00 544.10,619.23 543.18,628.50 C542.51,635.15 542.35,635.49 540.05,635.23 C538.71,635.08 537.51,634.84 537.36,634.70 C537.22,634.55 537.99,628.37 539.09,620.97 C540.52,611.27 540.79,606.87 540.06,605.25 C539.12,603.17 539.29,603.00 542.27,603.02 C545.36,603.04 545.78,603.56 552.00,615.00 C555.58,621.58 558.77,626.97 559.10,626.98 C559.43,626.99 560.29,622.28 561.00,616.50 L 562.30 606.00 L 565.25 606.00 C567.67,606.00 568.09,606.32 567.52,607.75 C566.72,609.77 564.20,627.38 563.78,633.92 ZM 637.80 547.19 C633.82,549.77 630.73,550.01 626.38,548.06 C621.22,545.75 619.00,542.64 619.00,537.73 C619.00,527.78 628.30,522.00 637.03,526.52 C644.48,530.37 644.93,542.58 637.80,547.19 ZM 485.46 319.62 C477.55,324.80 466.80,319.08 466.60,309.57 C466.47,303.97 469.28,299.98 474.60,298.18 C484.95,294.68 494.08,304.70 489.44,314.48 C488.49,316.50 486.69,318.81 485.46,319.62 ZM 554.03 310.48 C548.72,313.23 544.25,312.48 539.88,308.12 C536.78,305.02 536.00,303.49 536.00,300.57 C536.00,292.86 541.05,288.00 549.05,288.00 C552.44,288.00 553.83,288.63 556.60,291.40 C559.37,294.17 560.00,295.56 560.00,298.95 C560.00,304.24 557.77,308.55 554.03,310.48 ZM 674.58 542.75 C670.36,546.62 665.28,547.08 660.31,544.05 C656.20,541.54 655.00,539.18 655.00,533.58 C655.00,527.22 658.78,523.00 665.12,522.29 C677.55,520.89 683.76,534.33 674.58,542.75 ZM 603.76 553.00 C599.40,555.66 595.22,555.52 590.86,552.55 C586.62,549.67 586.00,548.36 586.00,542.32 C586.00,538.51 586.54,537.26 589.40,534.40 C592.39,531.41 593.42,531.00 597.98,531.00 C602.33,531.00 603.60,531.45 606.00,533.85 C611.75,539.59 610.67,548.79 603.76,553.00 ZM 523.75 313.58 C519.37,318.36 513.98,319.17 509.01,315.81 C501.95,311.01 500.81,302.99 506.40,297.40 C509.44,294.36 510.38,294.00 515.30,294.00 C520.34,294.00 521.05,294.29 523.90,297.53 C528.34,302.60 528.29,308.62 523.75,313.58 ZM 631.62 242.93 C633.16,246.37 633.70,248.70 633.10,249.30 C631.56,250.84 627.23,245.34 624.87,238.85 C623.69,235.63 622.36,233.00 621.91,233.00 C621.45,233.00 620.52,235.70 619.84,239.00 C618.60,245.02 617.36,246.15 614.20,244.14 C613.17,243.49 613.79,240.13 617.20,228.11 L 621.50 212.91 L 624.97 213.54 C631.85,214.79 637.00,219.40 637.00,224.32 C637.00,226.46 633.05,231.03 630.30,232.08 C627.53,233.13 627.63,234.02 631.62,242.93 ZM 451.43 596.67 C450.43,597.40 449.10,598.00 448.46,598.00 C446.11,598.00 439.29,592.13 437.67,588.72 C435.48,584.10 435.56,580.78 437.99,576.02 C444.07,564.11 460.48,562.56 465.65,573.40 C467.54,577.36 467.04,579.49 464.04,580.28 C462.29,580.74 462.03,580.49 462.54,578.87 C462.89,577.76 462.47,575.84 461.56,574.45 C460.27,572.48 459.11,572.00 455.68,572.00 C448.92,572.00 448.20,573.76 453.20,578.06 L 457.43 581.70 L 455.11 582.94 C453.03,584.06 452.44,583.85 449.43,580.94 C446.64,578.23 445.83,577.90 444.57,578.94 C443.73,579.64 442.76,581.76 442.40,583.67 C441.86,586.58 442.19,587.59 444.49,589.99 C446.00,591.57 448.59,593.42 450.24,594.10 C453.04,595.26 453.12,595.44 451.43,596.67 ZM 763.09 365.25 C756.39,371.71 750.56,377.00 750.14,377.00 C749.73,377.00 748.94,375.76 748.39,374.25 C747.50,371.76 747.78,371.16 751.41,367.90 C755.41,364.31 755.41,364.31 754.18,360.19 C752.90,355.92 752.50,355.71 744.08,354.77 C742.43,354.59 741.36,353.60 740.72,351.69 C740.21,350.14 739.95,348.75 740.15,348.59 C740.44,348.36 769.16,352.30 773.89,353.23 C774.67,353.38 769.91,358.68 763.09,365.25 ZM 768.03 519.75 C765.95,524.32 765.89,524.35 761.75,522.84 C758.50,521.65 758.22,520.38 761.00,519.50 C763.67,518.65 765.31,515.38 764.57,512.41 C763.69,508.93 758.74,509.19 753.00,513.00 C745.20,518.18 737.57,516.28 735.01,508.52 C734.05,505.63 734.18,504.38 735.82,500.67 C738.23,495.23 739.26,494.55 742.51,496.25 L 745.07 497.59 L 742.53 499.97 C739.13,503.17 739.11,507.64 742.48,509.17 C744.65,510.16 745.73,509.84 750.88,506.65 C758.46,501.98 762.93,501.77 767.08,505.92 C770.58,509.43 770.86,513.50 768.03,519.75 ZM 769.82 420.42 C766.26,422.91 761.49,422.41 757.86,419.17 C755.18,416.77 754.62,415.47 754.22,410.67 C753.80,405.63 753.96,405.00 755.63,404.99 C756.66,404.98 758.59,404.68 759.92,404.33 C762.29,403.69 762.30,403.73 760.67,406.06 C758.15,409.66 758.50,413.82 761.44,415.15 C764.97,416.76 766.60,415.72 769.49,410.01 C773.36,402.39 775.14,401.00 781.05,401.00 C785.03,401.00 786.59,401.50 788.48,403.39 C793.36,408.27 792.72,418.00 787.52,418.00 C784.68,418.00 784.55,417.71 786.09,414.84 C788.47,410.39 784.20,404.75 780.11,406.94 C779.07,407.50 776.84,410.40 775.15,413.39 C773.46,416.38 771.06,419.55 769.82,420.42 ZM 617.92 632.88 C605.85,637.08 596.11,628.75 597.23,615.19 C597.63,610.40 598.17,609.23 601.33,606.34 C604.52,603.42 605.65,603.00 610.36,603.00 C613.86,603.00 616.18,603.51 616.96,604.46 C618.94,606.83 617.37,607.74 612.17,607.24 C607.89,606.83 607.07,607.06 605.64,609.11 C604.74,610.39 604.00,612.50 604.00,613.79 C604.00,616.06 604.20,616.12 609.43,615.46 C614.62,614.82 614.84,614.88 614.31,616.90 C613.99,618.15 612.67,619.26 611.13,619.60 C609.68,619.92 607.49,620.47 606.26,620.84 L 604.02 621.50 L 606.01 624.77 C609.15,629.93 612.17,630.80 617.66,628.13 C620.18,626.91 622.42,626.09 622.65,626.32 C623.88,627.55 620.75,631.89 617.92,632.88 ZM 531.75 244.03 C519.95,249.38 510.00,242.29 510.00,228.53 C510.00,223.64 510.40,222.54 513.28,219.39 C515.88,216.55 517.53,215.70 521.14,215.29 C526.27,214.71 530.23,216.25 529.37,218.48 C528.95,219.57 527.75,219.79 524.57,219.35 C520.79,218.84 520.09,219.07 518.16,221.52 C516.97,223.03 516.00,225.38 516.00,226.74 C516.00,228.91 516.32,229.14 518.62,228.56 C526.30,226.63 527.00,226.66 527.00,228.86 C527.00,230.53 526.05,231.21 522.50,232.10 C517.41,233.39 516.97,234.69 520.34,238.61 C523.25,241.99 527.51,242.19 531.77,239.17 C535.63,236.41 536.00,236.45 536.00,239.55 C536.00,241.58 535.13,242.49 531.75,244.03 ZM 470.99 252.60 C473.39,265.35 473.73,268.70 472.71,269.71 C471.70,270.73 468.68,269.07 457.28,261.24 C449.48,255.88 443.08,251.21 443.05,250.87 C443.02,250.52 444.15,249.48 445.55,248.56 C447.95,246.99 448.19,247.00 449.80,248.79 C452.62,251.94 466.04,261.30 466.73,260.60 C467.62,259.71 464.11,241.84 462.72,240.16 C461.85,239.12 462.15,238.38 464.05,236.93 C466.73,234.86 468.00,234.53 468.00,235.87 C468.00,236.35 469.34,243.88 470.99,252.60 ZM 673.81 263.50 C669.87,266.82 667.73,266.70 661.24,262.79 L 657.99 260.83 L 659.71 257.91 L 661.44 254.99 L 663.79 257.99 C666.61,261.60 669.65,261.87 671.11,258.65 C671.99,256.73 671.71,255.36 669.59,251.18 C666.35,244.79 666.32,241.59 669.45,238.45 C672.88,235.03 679.76,235.02 683.69,238.44 C686.30,240.70 686.38,240.99 684.86,242.54 C683.32,244.10 683.07,244.07 681.05,242.05 C678.17,239.17 673.63,239.58 673.18,242.76 C673.00,244.00 674.03,247.48 675.45,250.49 C678.50,256.94 678.14,259.87 673.81,263.50 ZM 714.39 584.95 C710.40,589.69 708.41,590.43 706.61,587.85 C705.19,585.82 705.28,585.61 708.30,584.10 C710.83,582.83 711.50,581.88 711.50,579.50 L 711.50 576.50 L 703.67 576.50 C696.10,576.50 695.75,576.39 692.92,573.23 C689.04,568.90 689.04,564.80 692.92,560.92 C696.06,557.79 700.42,557.04 701.35,559.47 C701.70,560.39 700.95,561.41 699.30,562.22 C695.64,564.02 694.22,566.54 695.63,568.75 C696.51,570.13 698.21,570.51 703.63,570.55 C713.52,570.62 713.80,570.70 715.47,573.95 C717.68,578.21 717.36,581.42 714.39,584.95 ZM 734.18 310.00 C728.10,314.40 722.99,317.99 722.81,317.97 C722.64,317.95 721.72,316.87 720.78,315.57 C719.23,313.44 719.22,313.13 720.62,312.59 C721.48,312.26 726.94,308.53 732.75,304.30 L 743.30 296.60 L 739.62 293.42 C735.95,290.24 736.21,289.00 740.57,289.00 C742.02,289.00 754.74,305.66 754.19,306.84 C754.02,307.20 753.01,307.82 751.94,308.22 C750.38,308.80 749.72,308.26 748.55,305.47 C747.75,303.56 746.68,302.00 746.17,302.00 C745.66,302.00 740.26,305.60 734.18,310.00 ZM 712.02 270.76 C708.39,274.47 703.36,279.83 700.86,282.68 L 696.31 287.87 L 694.17 285.73 L 692.03 283.59 L 701.34 274.04 C706.46,268.79 711.39,263.40 712.30,262.06 L 713.96 259.61 L 716.30 261.81 L 718.64 264.01 ZM 434.49 304.01 C433.50,305.10 432.42,305.97 432.10,305.94 C431.77,305.90 427.00,301.85 421.50,296.94 C416.00,292.02 410.49,287.73 409.25,287.39 C406.47,286.64 406.46,286.21 409.10,283.39 L 411.21 281.15 L 420.86 289.33 C426.17,293.82 431.82,298.52 433.41,299.76 C436.21,301.95 436.24,302.08 434.49,304.01 ZM 745.65 548.09 L 747.79 549.54 L 745.40 552.33 C744.08,553.86 743.00,554.68 743.00,554.14 C743.00,553.16 728.55,541.31 721.76,536.73 C718.04,534.21 718.03,534.19 719.86,531.92 L 721.71 529.64 L 732.60 538.14 C738.60,542.81 744.47,547.29 745.65,548.09 ZM 419.52 557.74 C415.11,561.71 411.26,564.98 410.96,564.99 C410.67,564.99 409.68,564.26 408.78,563.35 C407.24,561.81 407.49,561.37 412.31,557.11 C415.17,554.59 420.55,549.62 424.28,546.07 L 431.06 539.61 L 433.25 541.81 L 435.45 544.01 L 431.49 547.25 C429.32,549.04 423.93,553.76 419.52,557.74 ZM 531.25 282.85 C524.96,290.27 513.96,281.22 519.56,273.22 C520.76,271.50 522.10,271.00 525.50,271.00 C528.90,271.00 530.24,271.50 531.44,273.22 C533.50,276.16 533.42,280.29 531.25,282.85 ZM 504.55 294.55 C501.89,297.20 499.64,297.56 496.50,295.85 C488.85,291.66 491.26,282.00 499.94,282.00 C502.88,282.00 504.28,282.56 505.44,284.22 C507.74,287.51 507.38,291.71 504.55,294.55 ZM 598.09 576.13 C593.78,579.62 588.02,578.11 586.18,573.01 C584.39,568.06 588.32,563.00 593.94,563.00 C599.90,563.00 602.84,572.28 598.09,576.13 ZM 556.08 277.08 C552.54,280.61 550.00,280.76 546.39,277.66 C540.91,272.94 543.85,265.00 551.08,265.00 C553.97,265.00 555.34,265.62 556.93,267.63 C559.75,271.22 559.53,273.62 556.08,277.08 ZM 651.93 558.37 C647.84,563.56 639.00,560.23 639.00,553.50 C639.00,547.00 647.40,543.60 651.83,548.31 C654.56,551.23 654.60,554.97 651.93,558.37 ZM 625.69 569.83 C624.41,571.02 622.14,572.00 620.64,572.00 C617.17,572.00 613.00,567.91 613.00,564.50 C613.00,561.01 617.16,557.00 620.78,557.00 C627.12,557.00 630.35,565.45 625.69,569.83 ZM 623.00 229.51 C623.00,230.33 623.76,231.00 624.69,231.00 C627.17,231.00 631.00,226.99 631.00,224.40 C631.00,221.96 628.61,219.00 626.64,219.00 C625.49,219.00 623.00,226.21 623.00,229.51 Z" fill="rgb(3,149,57)"/>
<path d="M 701.58 757.50 C695.49,760.60 690.74,760.67 684.97,757.75 C676.55,753.50 673.33,744.56 674.30,728.19 C675.20,712.85 679.65,706.64 690.65,705.37 C695.08,704.86 698.36,705.55 705.25,708.47 C706.86,709.16 707.00,708.23 707.00,696.61 L 707.00 684.00 L 718.00 684.00 L 718.00 759.00 L 712.50 759.00 C707.67,759.00 707.00,758.76 707.00,757.00 C707.00,755.90 706.89,755.00 706.75,755.00 C706.61,755.01 704.29,756.13 701.58,757.50 ZM 525.58 757.50 C519.76,760.45 514.98,760.64 509.50,758.12 C502.08,754.71 499.19,749.15 498.33,736.65 C497.37,722.61 500.67,711.27 506.75,707.71 C512.79,704.19 519.69,704.42 529.25,708.47 C530.86,709.16 531.00,708.23 531.00,696.61 L 531.00 684.00 L 542.00 684.00 L 542.00 759.00 L 536.50 759.00 C531.67,759.00 531.00,758.76 531.00,757.00 C531.00,755.90 530.89,755.00 530.75,755.00 C530.61,755.01 528.29,756.13 525.58,757.50 ZM 628.58 757.50 C617.91,762.92 607.11,758.68 603.32,747.61 C601.17,741.32 600.91,723.42 602.89,717.66 C604.74,712.30 609.50,707.23 613.83,706.03 C620.02,704.31 623.54,704.78 632.25,708.47 C633.86,709.16 634.00,708.23 634.00,696.61 L 634.00 684.00 L 645.00 684.00 L 645.00 759.00 L 639.50 759.00 C634.67,759.00 634.00,758.76 634.00,757.00 C634.00,755.90 633.89,755.00 633.75,755.00 C633.61,755.01 631.29,756.13 628.58,757.50 ZM 187.94 758.42 C178.59,761.20 171.24,760.07 162.96,754.59 C158.11,751.38 154.43,745.95 153.07,740.00 C152.51,737.53 152.04,723.91 152.02,709.75 L 152.00 684.00 L 163.91 684.00 L 164.21 711.93 C164.49,738.52 164.60,739.99 166.60,742.68 C173.36,751.73 186.95,751.36 192.46,741.96 C194.35,738.75 194.52,736.54 194.81,711.25 L 195.12 684.00 L 206.00 684.00 L 206.00 711.32 C206.00,733.52 205.71,739.51 204.43,743.25 C202.27,749.58 194.91,756.35 187.94,758.42 ZM 872.50 757.59 C869.46,759.58 859.57,760.28 855.23,758.81 C853.43,758.20 850.40,755.97 848.48,753.85 C845.27,750.30 845.00,749.49 845.00,743.63 C845.00,732.41 849.80,728.85 866.00,728.03 L 876.50 727.50 L 876.40 723.08 C876.26,716.89 873.72,715.00 865.52,715.00 C860.66,715.00 858.67,715.47 856.57,717.12 L 853.87 719.25 L 850.69 716.37 C848.94,714.79 847.32,713.39 847.09,713.26 C846.31,712.80 850.49,708.80 853.22,707.38 C857.31,705.27 866.78,704.60 873.33,705.96 C880.31,707.41 885.50,711.55 886.97,716.83 C887.53,718.85 887.99,729.16 887.99,739.75 L 888.00 759.00 L 882.50 759.00 C878.28,759.00 877.00,758.65 877.00,757.50 C877.00,755.57 875.54,755.60 872.50,757.59 ZM 577.50 757.59 C574.46,759.58 564.57,760.28 560.23,758.81 C558.43,758.20 555.40,755.97 553.48,753.85 C550.27,750.30 550.00,749.49 550.00,743.63 C550.00,732.44 554.73,728.94 571.00,728.06 L 581.50 727.50 L 581.40 723.08 C581.26,716.89 578.72,715.00 570.52,715.00 C565.66,715.00 563.67,715.47 561.56,717.13 L 558.86 719.26 L 555.44 715.94 C552.16,712.77 552.10,712.55 553.76,710.71 C556.52,707.66 560.51,706.02 566.75,705.37 C579.25,704.06 589.75,708.83 591.97,716.83 C592.53,718.85 592.99,729.16 592.99,739.75 L 593.00 759.00 L 587.50 759.00 C583.28,759.00 582.00,758.65 582.00,757.50 C582.00,755.57 580.54,755.60 577.50,757.59 ZM 368.39 758.58 C357.19,761.95 346.10,758.60 340.31,750.10 C335.72,743.36 334.79,727.22 338.48,718.38 C342.97,707.64 354.03,702.83 366.14,706.35 C375.62,709.11 380.94,717.32 380.98,729.25 L 381.00 736.00 L 364.00 736.00 L 362.61 736.00 C351.80,736.00 347.90,736.00 347.14,737.54 C346.72,738.40 347.29,739.76 348.18,741.88 C348.24,742.04 348.31,742.20 348.38,742.36 C350.56,747.58 354.40,750.00 360.50,750.00 C364.42,750.00 366.64,749.38 369.42,747.49 L 373.11 744.98 L 376.56 747.61 C378.45,749.06 380.00,750.61 380.00,751.07 C380.00,752.68 373.03,757.19 368.39,758.58 ZM 928.57 758.49 C914.47,762.80 901.32,756.68 897.60,744.07 C893.25,729.31 897.97,712.68 907.99,707.50 C912.64,705.10 920.19,704.62 926.14,706.35 C935.46,709.06 940.07,715.95 940.80,728.25 L 941.26 736.00 L 924.13 736.00 C907.53,736.00 907.00,736.06 907.00,738.05 C907.00,741.02 909.55,745.50 912.61,747.91 C916.57,751.02 924.55,750.80 929.49,747.44 L 933.27 744.88 L 936.38 747.69 C938.09,749.24 939.71,750.65 939.99,750.83 C941.22,751.63 933.02,757.13 928.57,758.49 ZM 762.50 757.26 C758.07,759.52 747.24,760.51 742.76,759.06 C737.48,757.36 732.96,753.78 730.24,749.16 C727.66,744.77 727.50,743.79 727.50,732.42 C727.50,720.71 727.59,720.19 730.54,715.42 C734.88,708.40 740.42,705.50 749.50,705.50 C755.34,705.50 757.28,705.96 761.18,708.25 C767.60,712.03 771.32,719.51 771.43,728.87 L 771.50 735.50 L 737.22 736.05 L 737.95 739.30 C739.09,744.31 740.78,746.83 744.19,748.60 C748.52,750.84 756.67,750.08 760.94,747.05 L 764.19 744.73 L 767.29 747.82 C770.37,750.91 770.37,750.93 768.44,753.07 C767.37,754.25 764.70,756.13 762.50,757.26 ZM 961.00 740.06 L 961.00 759.00 L 950.00 759.00 L 950.00 706.00 L 955.50 706.00 C960.30,706.00 961.00,706.25 961.00,707.97 C961.00,709.88 961.11,709.87 964.75,707.72 C967.59,706.04 970.08,705.50 975.00,705.50 C983.27,705.50 987.64,707.86 990.75,713.98 C992.86,718.16 993.00,719.65 993.00,738.76 L 993.00 759.10 L 982.50 758.50 L 981.50 719.82 L 978.57 717.30 C976.05,715.14 974.93,714.85 970.63,715.26 C966.79,715.63 965.08,716.37 963.31,718.43 C961.07,721.03 961.00,721.71 961.00,740.06 ZM 229.50 719.82 L 228.50 758.50 L 218.00 759.10 L 218.00 706.00 L 223.50 706.00 C228.30,706.00 229.00,706.25 229.00,707.97 C229.00,709.88 229.11,709.87 232.75,707.72 C235.61,706.03 238.04,705.51 243.00,705.53 C250.86,705.57 254.90,707.49 258.15,712.73 C260.39,716.33 260.51,717.48 260.82,737.80 L 261.14 759.11 L 250.50 758.50 L 249.50 719.82 L 246.69 717.41 C244.65,715.66 242.70,715.00 239.50,715.00 C236.30,715.00 234.35,715.66 232.31,717.41 ZM 457.71 758.49 C449.07,761.06 439.77,760.08 431.43,755.73 C425.97,752.89 425.65,751.73 429.35,748.15 L 432.65 744.95 L 437.08 747.36 C439.51,748.69 443.18,750.07 445.24,750.43 C455.23,752.18 463.75,744.75 458.16,739.16 C456.84,737.84 454.11,737.13 448.47,736.66 C434.49,735.48 429.00,731.12 429.00,721.20 C429.00,715.06 431.97,710.28 437.51,707.50 C443.18,704.66 456.60,704.80 463.25,707.77 C465.86,708.93 468.00,710.23 468.00,710.65 C468.00,711.06 466.61,712.84 464.92,714.58 C461.93,717.66 461.74,717.72 458.83,716.27 C457.18,715.44 452.99,714.71 449.52,714.63 C442.48,714.48 439.00,716.45 439.00,720.58 C439.00,724.44 443.14,726.68 451.69,727.49 C463.86,728.63 468.15,731.13 470.05,738.20 C472.40,746.92 467.05,755.72 457.71,758.49 ZM 823.62 757.19 C819.22,759.44 809.14,760.49 804.99,759.13 C800.99,757.81 796.47,755.27 795.00,753.51 C793.83,752.09 794.12,751.41 797.20,748.33 C800.65,744.88 800.81,744.83 803.25,746.43 C809.83,750.74 816.52,750.20 821.56,744.94 L 824.50 741.87 L 824.79 712.94 L 825.09 684.00 L 837.00 684.00 L 837.00 710.82 C837.00,740.75 836.31,745.30 830.80,751.57 C829.09,753.52 825.86,756.05 823.62,757.19 ZM 315.42 758.12 C315.13,758.61 313.09,759.00 310.89,759.00 C310.62,759.00 310.36,759.01 310.12,759.01 C309.34,759.03 308.72,759.04 308.18,758.86 C306.07,758.15 304.93,754.58 298.59,737.31 C295.61,729.16 291.79,718.79 290.11,714.25 L 287.05 706.00 L 298.60 706.00 L 304.55 723.49 C307.82,733.12 310.73,740.99 311.02,740.99 C311.31,741.00 314.15,733.12 317.34,723.50 L 323.15 706.00 L 334.77 706.00 L 325.37 731.62 C320.20,745.72 315.72,757.64 315.42,758.12 ZM 401.00 740.95 L 401.00 759.00 L 390.00 759.00 L 390.00 706.00 L 395.50 706.00 C400.30,706.00 401.00,706.25 401.00,707.97 C401.00,709.92 401.02,709.92 404.32,707.97 C410.71,704.21 422.70,704.53 426.04,708.55 C427.12,709.85 426.72,710.70 423.51,713.99 C419.83,717.76 419.60,717.85 416.90,716.45 C413.50,714.69 409.97,714.60 406.47,716.19 C401.64,718.40 401.00,721.27 401.00,740.95 ZM 617.83 748.29 C623.85,752.02 631.04,749.13 632.96,742.20 C634.33,737.27 634.18,725.35 632.69,721.03 C631.30,716.98 628.06,715.04 622.67,715.01 C614.77,714.98 610.66,723.84 612.42,737.09 C613.28,743.61 614.56,746.26 617.83,748.29 ZM 689.67 747.95 C693.35,750.85 699.40,750.70 702.46,747.63 C705.34,744.75 707.00,739.20 706.97,732.50 C706.93,720.85 703.32,715.00 696.17,715.00 C688.63,715.00 685.00,720.44 685.01,731.72 C685.01,740.47 686.43,745.41 689.67,747.95 ZM 514.94 748.53 C522.07,752.41 529.23,748.29 530.54,739.56 C531.43,733.63 530.63,723.36 529.01,719.86 C527.54,716.70 524.17,715.00 519.38,715.00 C511.89,715.00 508.06,722.89 509.26,735.86 C509.92,742.89 511.64,746.73 514.94,748.53 ZM 283.00 706.00 L 283.00 759.00 L 272.00 759.00 L 272.00 706.00 ZM 489.00 706.00 L 489.00 759.00 L 478.00 759.00 L 478.00 706.00 ZM 564.52 749.49 C567.80,751.26 574.54,750.93 577.91,748.83 C580.47,747.22 582.00,743.72 582.00,739.45 L 582.00 736.00 L 573.00 736.00 C562.91,736.00 559.99,737.52 560.02,742.75 C560.03,746.28 560.86,747.51 564.52,749.49 ZM 859.52 749.49 C867.09,753.58 877.00,748.19 877.00,739.98 L 877.00 736.00 L 868.00 736.00 C857.91,736.00 854.99,737.52 855.02,742.75 C855.03,746.28 855.86,747.51 859.52,749.49 ZM 347.29 724.58 L 346.74 728.00 L 358.20 728.00 C364.51,728.00 369.91,727.75 370.22,727.45 C370.52,727.15 370.41,725.30 369.97,723.35 C368.37,716.28 362.46,712.99 354.97,715.01 C350.75,716.14 348.13,719.41 347.29,724.58 ZM 907.32 724.39 L 906.74 728.00 L 930.00 728.00 L 930.00 725.15 C930.00,720.98 926.11,715.78 922.23,714.78 C917.81,713.64 911.39,715.47 909.45,718.43 C908.60,719.73 907.65,722.41 907.32,724.39 ZM 737.78 727.45 C738.09,727.75 743.22,728.00 749.20,728.00 C761.82,728.00 762.58,727.42 759.18,720.44 C757.46,716.89 756.36,715.90 753.17,715.05 C748.18,713.70 743.72,714.61 740.99,717.51 C738.85,719.79 736.72,726.39 737.78,727.45 ZM 925.61 690.27 C922.00,695.58 921.43,696.00 917.86,696.00 C915.74,696.00 914.00,695.68 914.00,695.29 C914.00,694.91 915.65,691.08 917.66,686.79 L 921.32 679.00 L 933.20 679.00 L 931.35 681.77 C930.33,683.30 927.75,687.13 925.61,690.27 ZM 283.00 684.00 L 283.00 696.00 L 278.17 696.00 C275.51,696.00 273.03,695.70 272.67,695.33 C272.30,694.97 272.00,692.27 272.00,689.33 L 272.00 684.00 ZM 489.00 684.00 L 489.00 696.00 L 484.17 696.00 C481.51,696.00 479.03,695.70 478.67,695.33 C478.30,694.97 478.00,692.27 478.00,689.33 L 478.00 684.00 Z" fill="rgb(34,30,31)"/>
<path d="M 0.00 0.00 L 1145.00 0.00 L 1145.00 916.00 L 0.00 916.00 ZM 555.00 597.39 C560.86,598.42 594.88,597.21 603.01,595.67 C660.26,584.90 707.53,548.85 732.40,497.00 C739.10,483.03 743.21,470.69 746.70,454.06 C749.03,442.98 749.34,439.15 749.38,421.50 C749.42,404.88 749.06,399.52 747.21,389.76 C743.06,367.84 734.76,346.24 723.50,328.07 C697.46,286.05 655.91,256.98 608.75,247.79 L 597.01 245.50 L 597.01 239.75 L 597.00 234.00 L 549.10 234.00 L 548.80 239.72 L 548.50 245.44 L 544.00 246.25 C486.96,256.49 440.05,291.04 414.71,341.50 C400.78,369.25 395.20,395.26 396.31,427.39 C397.62,465.64 409.66,499.12 432.86,529.00 C459.95,563.90 501.08,588.63 543.38,595.48 C548.40,596.29 553.62,597.15 555.00,597.39 ZM 558.00 654.42 C564.80,655.21 594.64,654.00 604.94,652.51 C692.52,639.83 766.12,578.89 793.95,496.00 C802.41,470.83 806.00,448.20 806.00,420.20 C805.98,357.78 781.82,299.64 737.55,255.48 C725.42,243.38 708.88,230.26 695.00,221.73 C684.19,215.09 662.18,204.70 650.00,200.49 C637.50,196.18 616.89,191.00 612.22,191.00 L 608.90 191.00 L 609.20 196.15 L 609.50 201.30 L 620.00 203.61 C661.52,212.78 697.81,232.15 727.36,260.93 C746.76,279.81 760.72,299.14 772.53,323.49 C787.44,354.21 793.78,380.38 794.72,415.04 C795.51,444.39 791.91,467.90 782.47,495.00 C766.16,541.83 731.35,584.81 688.50,611.03 C662.72,626.81 630.73,637.91 599.00,642.08 C585.45,643.86 557.93,643.62 543.65,641.59 C462.99,630.12 395.44,577.13 365.60,501.91 C351.41,466.12 346.93,422.13 353.56,383.57 C366.71,307.13 418.10,243.34 489.65,214.63 C502.28,209.56 518.04,204.86 528.75,202.96 L 536.00 201.68 L 536.00 196.34 C536.00,191.28 535.87,191.00 533.45,191.00 C532.04,191.00 527.66,191.72 523.70,192.60 C427.04,214.03 355.59,290.96 341.33,388.94 C340.19,396.79 339.65,407.08 339.64,421.00 C339.63,444.40 341.23,457.73 346.55,478.64 C360.95,535.31 396.23,584.38 446.00,616.98 C473.88,635.24 512.52,649.28 545.00,652.94 C550.22,653.53 556.08,654.19 558.00,654.42 ZM 701.58 757.50 C704.29,756.13 706.61,755.01 706.75,755.00 C706.89,755.00 707.00,755.90 707.00,757.00 C707.00,758.76 707.67,759.00 712.50,759.00 L 718.00 759.00 L 718.00 684.00 L 707.00 684.00 L 707.00 696.61 C707.00,708.23 706.86,709.16 705.25,708.47 C698.36,705.55 695.08,704.86 690.65,705.37 C679.65,706.64 675.20,712.85 674.30,728.19 C673.33,744.56 676.55,753.50 684.97,757.75 C690.74,760.67 695.49,760.60 701.58,757.50 ZM 525.58 757.50 C528.29,756.13 530.61,755.01 530.75,755.00 C530.89,755.00 531.00,755.90 531.00,757.00 C531.00,758.76 531.67,759.00 536.50,759.00 L 542.00 759.00 L 542.00 684.00 L 531.00 684.00 L 531.00 696.61 C531.00,708.23 530.86,709.16 529.25,708.47 C519.69,704.42 512.79,704.19 506.75,707.71 C500.67,711.27 497.37,722.61 498.33,736.65 C499.19,749.15 502.08,754.71 509.50,758.12 C514.98,760.64 519.76,760.45 525.58,757.50 ZM 628.58 757.50 C631.29,756.13 633.61,755.01 633.75,755.00 C633.89,755.00 634.00,755.90 634.00,757.00 C634.00,758.76 634.67,759.00 639.50,759.00 L 645.00 759.00 L 645.00 684.00 L 634.00 684.00 L 634.00 696.61 C634.00,708.23 633.86,709.16 632.25,708.47 C623.54,704.78 620.02,704.31 613.83,706.03 C609.50,707.23 604.74,712.30 602.89,717.66 C600.91,723.42 601.17,741.32 603.32,747.61 C607.11,758.68 617.91,762.92 628.58,757.50 ZM 562.00 222.14 C562.00,222.61 567.00,223.00 573.11,223.00 C584.12,223.00 584.21,222.98 583.69,220.75 C581.57,211.77 578.94,196.73 579.40,196.27 C579.71,195.96 585.59,196.83 592.46,198.20 C599.34,199.58 605.20,200.47 605.48,200.18 C606.01,199.65 606.23,179.00 605.71,179.00 C605.55,179.00 599.61,180.11 592.52,181.48 C585.42,182.84 579.42,183.75 579.17,183.50 C578.76,183.09 582.09,165.01 583.63,159.25 C584.23,157.02 584.16,157.00 573.12,157.00 C567.00,157.00 562.00,157.34 562.01,157.75 C562.01,158.16 563.15,163.86 564.54,170.42 C565.93,176.97 566.72,182.67 566.28,183.07 C565.85,183.48 559.92,182.72 553.11,181.38 C546.29,180.05 540.58,179.08 540.42,179.25 C539.92,179.75 539.71,200.05 540.21,200.54 C540.46,200.79 546.41,199.84 553.42,198.42 C560.43,197.00 566.36,196.03 566.59,196.26 C566.82,196.49 565.88,202.21 564.50,208.98 C563.13,215.74 562.00,221.66 562.00,222.14 ZM 187.94 758.42 C194.91,756.35 202.27,749.58 204.43,743.25 C205.71,739.51 206.00,733.52 206.00,711.32 L 206.00 684.00 L 195.12 684.00 L 194.81 711.25 C194.52,736.54 194.35,738.75 192.46,741.96 C186.95,751.36 173.36,751.73 166.60,742.68 C164.60,739.99 164.49,738.52 164.21,711.93 L 163.91 684.00 L 152.00 684.00 L 152.02 709.75 C152.04,723.91 152.51,737.53 153.07,740.00 C154.43,745.95 158.11,751.38 162.96,754.59 C171.24,760.07 178.59,761.20 187.94,758.42 ZM 872.50 757.59 C875.54,755.60 877.00,755.57 877.00,757.50 C877.00,758.65 878.28,759.00 882.50,759.00 L 888.00 759.00 L 887.99 739.75 C887.99,729.16 887.53,718.85 886.97,716.83 C885.50,711.55 880.31,707.41 873.33,705.96 C866.78,704.60 857.31,705.27 853.22,707.38 C850.49,708.80 846.31,712.80 847.09,713.26 C847.32,713.39 848.94,714.79 850.69,716.37 L 853.87 719.25 L 856.57 717.12 C858.67,715.47 860.66,715.00 865.52,715.00 C873.72,715.00 876.26,716.89 876.40,723.08 L 876.50 727.50 L 866.00 728.03 C849.80,728.85 845.00,732.41 845.00,743.63 C845.00,749.49 845.27,750.30 848.48,753.85 C850.40,755.97 853.43,758.20 855.23,758.81 C859.57,760.28 869.46,759.58 872.50,757.59 ZM 577.50 757.59 C580.54,755.60 582.00,755.57 582.00,757.50 C582.00,758.65 583.28,759.00 587.50,759.00 L 593.00 759.00 L 592.99 739.75 C592.99,729.16 592.53,718.85 591.97,716.83 C589.75,708.83 579.25,704.06 566.75,705.37 C560.51,706.02 556.52,707.66 553.76,710.71 C552.10,712.55 552.16,712.77 555.44,715.94 L 558.86 719.26 L 561.56 717.13 C563.67,715.47 565.66,715.00 570.52,715.00 C578.72,715.00 581.26,716.89 581.40,723.08 L 581.50 727.50 L 571.00 728.06 C554.73,728.94 550.00,732.44 550.00,743.63 C550.00,749.49 550.27,750.30 553.48,753.85 C555.40,755.97 558.43,758.20 560.23,758.81 C564.57,760.28 574.46,759.58 577.50,757.59 ZM 368.39 758.58 C373.03,757.19 380.00,752.68 380.00,751.07 C380.00,750.61 378.45,749.06 376.56,747.61 L 373.11 744.98 L 369.42 747.49 C366.64,749.38 364.42,750.00 360.50,750.00 C354.40,750.00 350.56,747.58 348.38,742.36 C348.31,742.20 348.24,742.04 348.18,741.88 C347.29,739.76 346.72,738.40 347.14,737.54 C347.90,736.00 351.80,736.00 362.61,736.00 L 364.00 736.00 L 381.00 736.00 L 380.98 729.25 C380.94,717.32 375.62,709.11 366.14,706.35 C354.03,702.83 342.97,707.64 338.48,718.38 C334.79,727.22 335.72,743.36 340.31,750.10 C346.10,758.60 357.19,761.95 368.39,758.58 ZM 928.57 758.49 C933.02,757.13 941.22,751.63 939.99,750.83 C939.71,750.65 938.09,749.24 936.38,747.69 L 933.27 744.88 L 929.49 747.44 C924.55,750.80 916.57,751.02 912.61,747.91 C909.55,745.50 907.00,741.02 907.00,738.05 C907.00,736.06 907.53,736.00 924.13,736.00 L 941.26 736.00 L 940.80 728.25 C940.07,715.95 935.46,709.06 926.14,706.35 C920.19,704.62 912.64,705.10 907.99,707.50 C897.97,712.68 893.25,729.31 897.60,744.07 C901.32,756.68 914.47,762.80 928.57,758.49 ZM 762.50 757.26 C764.70,756.13 767.37,754.25 768.44,753.07 C770.37,750.93 770.37,750.91 767.29,747.82 L 764.19 744.73 L 760.94 747.05 C756.67,750.08 748.52,750.84 744.19,748.60 C740.78,746.83 739.09,744.31 737.95,739.30 L 737.22 736.05 L 771.50 735.50 L 771.43 728.87 C771.32,719.51 767.60,712.03 761.18,708.25 C757.28,705.96 755.34,705.50 749.50,705.50 C740.42,705.50 734.88,708.40 730.54,715.42 C727.59,720.19 727.50,720.71 727.50,732.42 C727.50,743.79 727.66,744.77 730.24,749.16 C732.96,753.78 737.48,757.36 742.76,759.06 C747.24,760.51 758.07,759.52 762.50,757.26 ZM 961.00 740.06 C961.00,721.71 961.07,721.03 963.31,718.43 C965.08,716.37 966.79,715.63 970.63,715.26 C974.93,714.85 976.05,715.14 978.57,717.30 L 981.50 719.82 L 982.50 758.50 L 993.00 759.10 L 993.00 738.76 C993.00,719.65 992.86,718.16 990.75,713.98 C987.64,707.86 983.27,705.50 975.00,705.50 C970.08,705.50 967.59,706.04 964.75,707.72 C961.11,709.87 961.00,709.88 961.00,707.97 C961.00,706.25 960.30,706.00 955.50,706.00 L 950.00 706.00 L 950.00 759.00 L 961.00 759.00 ZM 229.50 719.82 L 232.31 717.41 C234.35,715.66 236.30,715.00 239.50,715.00 C242.70,715.00 244.65,715.66 246.69,717.41 L 249.50 719.82 L 250.50 758.50 L 261.14 759.11 L 260.82 737.80 C260.51,717.48 260.39,716.33 258.15,712.73 C254.90,707.49 250.86,705.57 243.00,705.53 C238.04,705.51 235.61,706.03 232.75,707.72 C229.11,709.87 229.00,709.88 229.00,707.97 C229.00,706.25 228.30,706.00 223.50,706.00 L 218.00 706.00 L 218.00 759.10 L 228.50 758.50 ZM 457.71 758.49 C467.05,755.72 472.40,746.92 470.05,738.20 C468.15,731.13 463.86,728.63 451.69,727.49 C443.14,726.68 439.00,724.44 439.00,720.58 C439.00,716.45 442.48,714.48 449.52,714.63 C452.99,714.71 457.18,715.44 458.83,716.27 C461.74,717.72 461.93,717.66 464.92,714.58 C466.61,712.84 468.00,711.06 468.00,710.65 C468.00,710.23 465.86,708.93 463.25,707.77 C456.60,704.80 443.18,704.66 437.51,707.50 C431.97,710.28 429.00,715.06 429.00,721.20 C429.00,731.12 434.49,735.48 448.47,736.66 C454.11,737.13 456.84,737.84 458.16,739.16 C463.75,744.75 455.23,752.18 445.24,750.43 C443.18,750.07 439.51,748.69 437.08,747.36 L 432.65 744.95 L 429.35 748.15 C425.65,751.73 425.97,752.89 431.43,755.73 C439.77,760.08 449.07,761.06 457.71,758.49 ZM 823.62 757.19 C825.86,756.05 829.09,753.52 830.80,751.57 C836.31,745.30 837.00,740.75 837.00,710.82 L 837.00 684.00 L 825.09 684.00 L 824.79 712.94 L 824.50 741.87 L 821.56 744.94 C816.52,750.20 809.83,750.74 803.25,746.43 C800.81,744.83 800.65,744.88 797.20,748.33 C794.12,751.41 793.83,752.09 795.00,753.51 C796.47,755.27 800.99,757.81 804.99,759.13 C809.14,760.49 819.22,759.44 823.62,757.19 ZM 315.42 758.12 C315.72,757.64 320.20,745.72 325.37,731.62 L 334.77 706.00 L 323.15 706.00 L 317.34 723.50 C314.15,733.12 311.31,741.00 311.02,740.99 C310.73,740.99 307.82,733.12 304.55,723.49 L 298.60 706.00 L 287.05 706.00 L 290.11 714.25 C291.79,718.79 295.61,729.16 298.59,737.31 C304.93,754.58 306.07,758.15 308.18,758.86 C308.72,759.04 309.34,759.03 310.12,759.01 C310.36,759.01 310.62,759.00 310.89,759.00 C313.09,759.00 315.13,758.61 315.42,758.12 ZM 401.00 740.95 C401.00,721.27 401.64,718.40 406.47,716.19 C409.97,714.60 413.50,714.69 416.90,716.45 C419.60,717.85 419.83,717.76 423.51,713.99 C426.72,710.70 427.12,709.85 426.04,708.55 C422.70,704.53 410.71,704.21 404.32,707.97 C401.02,709.92 401.00,709.92 401.00,707.97 C401.00,706.25 400.30,706.00 395.50,706.00 L 390.00 706.00 L 390.00 759.00 L 401.00 759.00 ZM 617.83 748.29 C614.56,746.26 613.28,743.61 612.42,737.09 C610.66,723.84 614.77,714.98 622.67,715.01 C628.06,715.04 631.30,716.98 632.69,721.03 C634.18,725.35 634.33,737.27 632.96,742.20 C631.04,749.13 623.85,752.02 617.83,748.29 ZM 689.67 747.95 C686.43,745.41 685.01,740.47 685.01,731.72 C685.00,720.44 688.63,715.00 696.17,715.00 C703.32,715.00 706.93,720.85 706.97,732.50 C707.00,739.20 705.34,744.75 702.46,747.63 C699.40,750.70 693.35,750.85 689.67,747.95 ZM 514.94 748.53 C511.64,746.73 509.92,742.89 509.26,735.86 C508.06,722.89 511.89,715.00 519.38,715.00 C524.17,715.00 527.54,716.70 529.01,719.86 C530.63,723.36 531.43,733.63 530.54,739.56 C529.23,748.29 522.07,752.41 514.94,748.53 ZM 391.92 535.65 C393.71,534.12 400.57,530.47 403.32,529.59 C405.03,529.04 405.01,528.79 402.88,525.01 C401.64,522.80 400.34,521.00 399.99,521.00 C399.64,521.00 398.26,522.17 396.92,523.60 C395.59,525.02 393.32,526.80 391.88,527.55 C389.52,528.78 389.08,528.70 387.26,526.71 C384.06,523.19 383.00,520.45 383.00,515.64 C383.00,507.93 389.90,502.00 398.89,502.00 C405.62,502.00 412.00,509.20 412.00,516.80 C412.00,520.80 412.85,521.25 416.08,518.94 C418.84,516.98 418.86,516.87 417.49,512.96 C415.13,506.29 410.15,499.97 405.63,497.92 C398.09,494.50 387.95,495.95 382.13,501.30 C379.16,504.03 376.05,510.60 376.02,514.21 C375.98,518.84 379.88,527.58 384.12,532.40 C388.46,537.33 389.47,537.75 391.92,535.65 ZM 283.00 706.00 L 272.00 706.00 L 272.00 759.00 L 283.00 759.00 ZM 489.00 706.00 L 478.00 706.00 L 478.00 759.00 L 489.00 759.00 ZM 377.27 413.93 C390.31,410.16 392.12,409.38 392.64,407.28 C392.97,405.98 393.07,404.78 392.87,404.62 C392.67,404.46 386.20,401.06 378.50,397.05 C370.80,393.05 363.01,388.65 361.18,387.29 C359.36,385.92 357.62,385.05 357.32,385.35 C357.01,385.65 356.53,387.95 356.25,390.45 C355.76,394.81 355.85,395.00 358.33,395.00 C361.42,395.00 381.29,405.12 380.24,406.15 C378.82,407.55 357.60,413.01 355.81,412.44 C354.23,411.94 354.00,412.50 354.00,416.88 L 354.00 421.89 L 358.25 420.04 C360.59,419.03 369.15,416.28 377.27,413.93 ZM 660.00 618.17 C660.00,617.75 659.48,616.88 658.84,616.24 C657.50,614.90 651.07,600.68 651.56,600.14 C651.91,599.75 666.47,607.62 671.56,610.95 C674.31,612.76 674.83,612.81 676.74,611.47 L 678.85 609.99 L 676.57 605.74 C675.32,603.41 672.32,596.90 669.90,591.27 C667.48,585.65 665.25,581.03 664.94,581.02 C664.63,581.01 663.61,581.57 662.66,582.26 C661.05,583.44 661.06,583.75 662.88,587.51 C667.10,596.25 669.85,603.00 669.19,602.99 C668.81,602.98 663.16,600.07 656.63,596.52 C644.86,590.13 644.73,590.09 641.69,591.66 L 638.62 593.25 L 641.17 594.58 C643.01,595.54 645.13,599.10 648.85,607.46 C651.68,613.81 654.00,619.69 654.00,620.53 C654.00,621.89 654.33,621.88 657.00,620.50 C658.65,619.65 660.00,618.60 660.00,618.17 ZM 502.87 621.25 C503.52,619.19 506.43,612.62 509.34,606.64 L 514.63 595.79 L 512.31 594.73 C511.04,594.15 509.86,593.86 509.70,594.09 C509.53,594.31 507.67,598.45 505.56,603.28 C503.44,608.11 501.37,612.27 500.94,612.54 C500.51,612.80 498.96,607.73 497.49,601.26 C496.03,594.79 494.63,588.78 494.40,587.90 C494.03,586.55 490.10,584.00 488.37,584.00 C488.08,584.00 488.11,585.24 488.43,586.75 C488.87,588.84 487.56,592.50 482.99,601.90 C479.67,608.72 477.08,614.39 477.23,614.51 C477.38,614.63 478.52,615.26 479.76,615.90 C481.79,616.96 482.13,616.80 483.06,614.29 C485.33,608.23 490.34,598.00 491.03,598.00 C491.44,598.00 492.80,603.51 494.06,610.25 C496.24,621.89 497.60,625.00 500.53,625.00 C501.17,625.00 502.22,623.31 502.87,621.25 ZM 402.22 358.15 C402.45,356.26 401.70,355.53 398.00,354.06 C389.10,350.51 383.73,347.94 384.21,347.46 C384.48,347.19 390.05,345.86 396.60,344.51 C405.62,342.65 408.92,341.53 410.25,339.92 C412.43,337.25 412.47,336.00 410.39,336.00 C408.56,336.00 388.74,327.60 385.08,325.27 C382.87,323.86 382.56,323.89 381.33,325.56 C379.55,328.00 379.65,330.00 381.56,330.00 C383.84,330.00 400.00,337.19 399.51,337.98 C399.28,338.36 396.48,339.22 393.30,339.90 C379.36,342.89 372.18,345.20 371.71,346.83 C371.44,347.75 370.91,349.26 370.53,350.20 C369.90,351.70 370.16,351.77 372.85,350.75 C375.56,349.73 376.95,350.10 386.68,354.48 C392.63,357.15 398.16,359.94 398.96,360.66 C400.68,362.23 401.84,361.34 402.22,358.15 ZM 563.78 633.92 C564.20,627.38 566.72,609.77 567.52,607.75 C568.09,606.32 567.67,606.00 565.25,606.00 L 562.30 606.00 L 561.00 616.50 C560.29,622.28 559.43,626.99 559.10,626.98 C558.77,626.97 555.58,621.58 552.00,615.00 C545.78,603.56 545.36,603.04 542.27,603.02 C539.29,603.00 539.12,603.17 540.06,605.25 C540.79,606.87 540.52,611.27 539.09,620.97 C537.99,628.37 537.22,634.55 537.36,634.70 C537.51,634.84 538.71,635.08 540.05,635.23 C542.35,635.49 542.51,635.15 543.18,628.50 C544.10,619.23 544.93,615.00 545.81,615.00 C546.21,615.00 549.20,620.16 552.46,626.46 C557.89,636.97 559.68,639.13 562.50,638.55 C563.05,638.44 563.63,636.35 563.78,633.92 ZM 631.62 242.93 C627.63,234.02 627.53,233.13 630.30,232.08 C633.05,231.03 637.00,226.46 637.00,224.32 C637.00,219.40 631.85,214.79 624.97,213.54 L 621.50 212.91 L 617.20 228.11 C613.79,240.13 613.17,243.49 614.20,244.14 C617.36,246.15 618.60,245.02 619.84,239.00 C620.52,235.70 621.45,233.00 621.91,233.00 C622.36,233.00 623.69,235.63 624.87,238.85 C627.23,245.34 631.56,250.84 633.10,249.30 C633.70,248.70 633.16,246.37 631.62,242.93 ZM 451.43 596.67 C453.12,595.44 453.04,595.26 450.24,594.10 C448.59,593.42 446.00,591.57 444.49,589.99 C442.19,587.59 441.86,586.58 442.40,583.67 C442.76,581.76 443.73,579.64 444.57,578.94 C445.83,577.90 446.64,578.23 449.43,580.94 C452.44,583.85 453.03,584.06 455.11,582.94 L 457.43 581.70 L 453.20 578.06 C448.20,573.76 448.92,572.00 455.68,572.00 C459.11,572.00 460.27,572.48 461.56,574.45 C462.47,575.84 462.89,577.76 462.54,578.87 C462.03,580.49 462.29,580.74 464.04,580.28 C467.04,579.49 467.54,577.36 465.65,573.40 C460.48,562.56 444.07,564.11 437.99,576.02 C435.56,580.78 435.48,584.10 437.67,588.72 C439.29,592.13 446.11,598.00 448.46,598.00 C449.10,598.00 450.43,597.40 451.43,596.67 ZM 763.09 365.25 C769.91,358.68 774.67,353.38 773.89,353.23 C769.16,352.30 740.44,348.36 740.15,348.59 C739.95,348.75 740.21,350.14 740.72,351.69 C741.36,353.60 742.43,354.59 744.08,354.77 C752.50,355.71 752.90,355.92 754.18,360.19 C755.41,364.31 755.41,364.31 751.41,367.90 C747.78,371.16 747.50,371.76 748.39,374.25 C748.94,375.76 749.73,377.00 750.14,377.00 C750.56,377.00 756.39,371.71 763.09,365.25 ZM 768.03 519.75 C770.86,513.50 770.58,509.43 767.08,505.92 C762.93,501.77 758.46,501.98 750.88,506.65 C745.73,509.84 744.65,510.16 742.48,509.17 C739.11,507.64 739.13,503.17 742.53,499.97 L 745.07 497.59 L 742.51 496.25 C739.26,494.55 738.23,495.23 735.82,500.67 C734.18,504.38 734.05,505.63 735.01,508.52 C737.57,516.28 745.20,518.18 753.00,513.00 C758.74,509.19 763.69,508.93 764.57,512.41 C765.31,515.38 763.67,518.65 761.00,519.50 C758.22,520.38 758.50,521.65 761.75,522.84 C765.89,524.35 765.95,524.32 768.03,519.75 ZM 769.82 420.42 C771.06,419.55 773.46,416.38 775.15,413.39 C776.84,410.40 779.07,407.50 780.11,406.94 C784.20,404.75 788.47,410.39 786.09,414.84 C784.55,417.71 784.68,418.00 787.52,418.00 C792.72,418.00 793.36,408.27 788.48,403.39 C786.59,401.50 785.03,401.00 781.05,401.00 C775.14,401.00 773.36,402.39 769.49,410.01 C766.60,415.72 764.97,416.76 761.44,415.15 C758.50,413.82 758.15,409.66 760.67,406.06 C762.30,403.73 762.29,403.69 759.92,404.33 C758.59,404.68 756.66,404.98 755.63,404.99 C753.96,405.00 753.80,405.63 754.22,410.67 C754.62,415.47 755.18,416.77 757.86,419.17 C761.49,422.41 766.26,422.91 769.82,420.42 ZM 617.92 632.88 C620.75,631.89 623.88,627.55 622.65,626.32 C622.42,626.09 620.18,626.91 617.66,628.13 C612.17,630.80 609.15,629.93 606.01,624.77 L 604.02 621.50 L 606.26 620.84 C607.49,620.47 609.68,619.92 611.13,619.60 C612.67,619.26 613.99,618.15 614.31,616.90 C614.84,614.88 614.62,614.82 609.43,615.46 C604.20,616.12 604.00,616.06 604.00,613.79 C604.00,612.50 604.74,610.39 605.64,609.11 C607.07,607.06 607.89,606.83 612.17,607.24 C617.37,607.74 618.94,606.83 616.96,604.46 C616.18,603.51 613.86,603.00 610.36,603.00 C605.65,603.00 604.52,603.42 601.33,606.34 C598.17,609.23 597.63,610.40 597.23,615.19 C596.11,628.75 605.85,637.08 617.92,632.88 ZM 531.75 244.03 C535.13,242.49 536.00,241.58 536.00,239.55 C536.00,236.45 535.63,236.41 531.77,239.17 C527.51,242.19 523.25,241.99 520.34,238.61 C516.97,234.69 517.41,233.39 522.50,232.10 C526.05,231.21 527.00,230.53 527.00,228.86 C527.00,226.66 526.30,226.63 518.62,228.56 C516.32,229.14 516.00,228.91 516.00,226.74 C516.00,225.38 516.97,223.03 518.16,221.52 C520.09,219.07 520.79,218.84 524.57,219.35 C527.75,219.79 528.95,219.57 529.37,218.48 C530.23,216.25 526.27,214.71 521.14,215.29 C517.53,215.70 515.88,216.55 513.28,219.39 C510.40,222.54 510.00,223.64 510.00,228.53 C510.00,242.29 519.95,249.38 531.75,244.03 ZM 470.99 252.60 C469.34,243.88 468.00,236.35 468.00,235.87 C468.00,234.53 466.73,234.86 464.05,236.93 C462.15,238.38 461.85,239.12 462.72,240.16 C464.11,241.84 467.62,259.71 466.73,260.60 C466.04,261.30 452.62,251.94 449.80,248.79 C448.19,247.00 447.95,246.99 445.55,248.56 C444.15,249.48 443.02,250.52 443.05,250.87 C443.08,251.21 449.48,255.88 457.28,261.24 C468.68,269.07 471.70,270.73 472.71,269.71 C473.73,268.70 473.39,265.35 470.99,252.60 ZM 673.81 263.50 C678.14,259.87 678.50,256.94 675.45,250.49 C674.03,247.48 673.00,244.00 673.18,242.76 C673.63,239.58 678.17,239.17 681.05,242.05 C683.07,244.07 683.32,244.10 684.86,242.54 C686.38,240.99 686.30,240.70 683.69,238.44 C679.76,235.02 672.88,235.03 669.45,238.45 C666.32,241.59 666.35,244.79 669.59,251.18 C671.71,255.36 671.99,256.73 671.11,258.65 C669.65,261.87 666.61,261.60 663.79,257.99 L 661.44 254.99 L 659.71 257.91 L 657.99 260.83 L 661.24 262.79 C667.73,266.70 669.87,266.82 673.81,263.50 ZM 714.39 584.95 C717.36,581.42 717.68,578.21 715.47,573.95 C713.80,570.70 713.52,570.62 703.63,570.55 C698.21,570.51 696.51,570.13 695.63,568.75 C694.22,566.54 695.64,564.02 699.30,562.22 C700.95,561.41 701.70,560.39 701.35,559.47 C700.42,557.04 696.06,557.79 692.92,560.92 C689.04,564.80 689.04,568.90 692.92,573.23 C695.75,576.39 696.10,576.50 703.67,576.50 L 711.50 576.50 L 711.50 579.50 C711.50,581.88 710.83,582.83 708.30,584.10 C705.28,585.61 705.19,585.82 706.61,587.85 C708.41,590.43 710.40,589.69 714.39,584.95 ZM 564.52 749.49 C560.86,747.51 560.03,746.28 560.02,742.75 C559.99,737.52 562.91,736.00 573.00,736.00 L 582.00 736.00 L 582.00 739.45 C582.00,743.72 580.47,747.22 577.91,748.83 C574.54,750.93 567.80,751.26 564.52,749.49 ZM 859.52 749.49 C855.86,747.51 855.03,746.28 855.02,742.75 C854.99,737.52 857.91,736.00 868.00,736.00 L 877.00 736.00 L 877.00 739.98 C877.00,748.19 867.09,753.58 859.52,749.49 ZM 347.29 724.58 C348.13,719.41 350.75,716.14 354.97,715.01 C362.46,712.99 368.37,716.28 369.97,723.35 C370.41,725.30 370.52,727.15 370.22,727.45 C369.91,727.75 364.51,728.00 358.20,728.00 L 346.74 728.00 ZM 907.32 724.39 C907.65,722.41 908.60,719.73 909.45,718.43 C911.39,715.47 917.81,713.64 922.23,714.78 C926.11,715.78 930.00,720.98 930.00,725.15 L 930.00 728.00 L 906.74 728.00 ZM 737.78 727.45 C736.72,726.39 738.85,719.79 740.99,717.51 C743.72,714.61 748.18,713.70 753.17,715.05 C756.36,715.90 757.46,716.89 759.18,720.44 C762.58,727.42 761.82,728.00 749.20,728.00 C743.22,728.00 738.09,727.75 737.78,727.45 ZM 734.18 310.00 C740.26,305.60 745.66,302.00 746.17,302.00 C746.68,302.00 747.75,303.56 748.55,305.47 C749.72,308.26 750.38,308.80 751.94,308.22 C753.01,307.82 754.02,307.20 754.19,306.84 C754.74,305.66 742.02,289.00 740.57,289.00 C736.21,289.00 735.95,290.24 739.62,293.42 L 743.30 296.60 L 732.75 304.30 C726.94,308.53 721.48,312.26 720.62,312.59 C719.22,313.13 719.23,313.44 720.78,315.57 C721.72,316.87 722.64,317.95 722.81,317.97 C722.99,317.99 728.10,314.40 734.18,310.00 ZM 712.02 270.76 L 718.64 264.01 L 716.30 261.81 L 713.96 259.61 L 712.30 262.06 C711.39,263.40 706.46,268.79 701.34,274.04 L 692.03 283.59 L 694.17 285.73 L 696.31 287.87 L 700.86 282.68 C703.36,279.83 708.39,274.47 712.02,270.76 ZM 434.49 304.01 C436.24,302.08 436.21,301.95 433.41,299.76 C431.82,298.52 426.17,293.82 420.86,289.33 L 411.21 281.15 L 409.10 283.39 C406.46,286.21 406.47,286.64 409.25,287.39 C410.49,287.73 416.00,292.02 421.50,296.94 C427.00,301.85 431.77,305.90 432.10,305.94 C432.42,305.97 433.50,305.10 434.49,304.01 ZM 745.65 548.09 C744.47,547.29 738.60,542.81 732.60,538.14 L 721.71 529.64 L 719.86 531.92 C718.03,534.19 718.04,534.21 721.76,536.73 C728.55,541.31 743.00,553.16 743.00,554.14 C743.00,554.68 744.08,553.86 745.40,552.33 L 747.79 549.54 ZM 419.52 557.74 C423.93,553.76 429.32,549.04 431.49,547.25 L 435.45 544.01 L 433.25 541.81 L 431.06 539.61 L 424.28 546.07 C420.55,549.62 415.17,554.59 412.31,557.11 C407.49,561.37 407.24,561.81 408.78,563.35 C409.68,564.26 410.67,564.99 410.96,564.99 C411.26,564.98 415.11,561.71 419.52,557.74 ZM 925.61 690.27 C927.75,687.13 930.33,683.30 931.35,681.77 L 933.20 679.00 L 921.32 679.00 L 917.66 686.79 C915.65,691.08 914.00,694.91 914.00,695.29 C914.00,695.68 915.74,696.00 917.86,696.00 C921.43,696.00 922.00,695.58 925.61,690.27 ZM 283.00 684.00 L 272.00 684.00 L 272.00 689.33 C272.00,692.27 272.30,694.97 272.67,695.33 C273.03,695.70 275.51,696.00 278.17,696.00 L 283.00 696.00 ZM 489.00 684.00 L 478.00 684.00 L 478.00 689.33 C478.00,692.27 478.30,694.97 478.67,695.33 C479.03,695.70 481.51,696.00 484.17,696.00 L 489.00 696.00 ZM 562.00 229.03 C562.00,230.97 562.51,231.05 572.74,230.78 C582.04,230.54 583.52,230.27 583.81,228.75 C584.11,227.17 583.08,227.00 573.07,227.00 C562.61,227.00 562.00,227.11 562.00,229.03 ZM 623.00 229.51 C623.00,226.21 625.49,219.00 626.64,219.00 C628.61,219.00 631.00,221.96 631.00,224.40 C631.00,226.99 627.17,231.00 624.69,231.00 C623.76,231.00 623.00,230.33 623.00,229.51 Z" fill="rgb(254,254,254)"/>
<path d="M 555.00 597.39 C553.62,597.15 548.40,596.29 543.38,595.48 C501.08,588.63 459.95,563.90 432.86,529.00 C409.66,499.12 397.62,465.64 396.31,427.39 C395.20,395.26 400.78,369.25 414.71,341.50 C440.05,291.04 486.96,256.49 544.00,246.25 L 548.50 245.44 L 548.80 239.72 L 549.10 234.00 L 597.00 234.00 L 597.01 239.75 L 597.01 245.50 L 608.75 247.79 C655.91,256.98 697.46,286.05 723.50,328.07 C734.76,346.24 743.06,367.84 747.21,389.76 C749.06,399.52 749.42,404.88 749.38,421.50 C749.34,439.15 749.03,442.98 746.70,454.06 C743.21,470.69 739.10,483.03 732.40,497.00 C707.53,548.85 660.26,584.90 603.01,595.67 C594.88,597.21 560.86,598.42 555.00,597.39 ZM 546.00 586.03 C560.73,588.72 591.85,588.22 606.50,585.04 C628.58,580.26 652.14,569.95 670.00,557.25 C682.21,548.58 700.63,530.14 709.23,518.00 C722.04,499.91 732.24,476.47 737.20,453.75 C739.14,444.84 739.43,440.57 739.43,421.00 C739.43,401.37 739.14,397.18 737.18,388.14 C722.45,320.60 673.24,271.44 605.66,256.80 C596.90,254.90 592.40,254.60 573.00,254.58 C553.28,254.56 549.20,254.84 540.00,256.84 C472.98,271.38 423.86,320.35 408.76,387.69 C406.84,396.23 406.56,400.40 406.58,420.00 C406.60,444.86 407.86,453.67 414.18,473.00 C433.35,531.73 483.31,574.56 546.00,586.03 ZM 558.00 654.42 C556.08,654.19 550.22,653.53 545.00,652.94 C512.52,649.28 473.88,635.24 446.00,616.98 C396.23,584.38 360.95,535.31 346.55,478.64 C341.23,457.73 339.63,444.40 339.64,421.00 C339.65,407.08 340.19,396.79 341.33,388.94 C355.59,290.96 427.04,214.03 523.70,192.60 C527.66,191.72 532.04,191.00 533.45,191.00 C535.87,191.00 536.00,191.28 536.00,196.34 L 536.00 201.68 L 528.75 202.96 C518.04,204.86 502.28,209.56 489.65,214.63 C418.10,243.34 366.71,307.13 353.56,383.57 C346.93,422.13 351.41,466.12 365.60,501.91 C395.44,577.13 462.99,630.12 543.65,641.59 C557.93,643.62 585.45,643.86 599.00,642.08 C630.73,637.91 662.72,626.81 688.50,611.03 C731.35,584.81 766.16,541.83 782.47,495.00 C791.91,467.90 795.51,444.39 794.72,415.04 C793.78,380.38 787.44,354.21 772.53,323.49 C760.72,299.14 746.76,279.81 727.36,260.93 C697.81,232.15 661.52,212.78 620.00,203.61 L 609.50 201.30 L 609.20 196.15 L 608.90 191.00 L 612.22 191.00 C616.89,191.00 637.50,196.18 650.00,200.49 C662.18,204.70 684.19,215.09 695.00,221.73 C708.88,230.26 725.42,243.38 737.55,255.48 C781.82,299.64 805.98,357.78 806.00,420.20 C806.00,448.20 802.41,470.83 793.95,496.00 C766.12,578.89 692.52,639.83 604.94,652.51 C594.64,654.00 564.80,655.21 558.00,654.42 ZM 562.00 222.14 C562.00,221.66 563.13,215.74 564.50,208.98 C565.88,202.21 566.82,196.49 566.59,196.26 C566.36,196.03 560.43,197.00 553.42,198.42 C546.41,199.84 540.46,200.79 540.21,200.54 C539.71,200.05 539.92,179.75 540.42,179.25 C540.58,179.08 546.29,180.05 553.11,181.38 C559.92,182.72 565.85,183.48 566.28,183.07 C566.72,182.67 565.93,176.97 564.54,170.42 C563.15,163.86 562.01,158.16 562.01,157.75 C562.00,157.34 567.00,157.00 573.12,157.00 C584.16,157.00 584.23,157.02 583.63,159.25 C582.09,165.01 578.76,183.09 579.17,183.50 C579.42,183.75 585.42,182.84 592.52,181.48 C599.61,180.11 605.55,179.00 605.71,179.00 C606.23,179.00 606.01,199.65 605.48,200.18 C605.20,200.47 599.34,199.58 592.46,198.20 C585.59,196.83 579.71,195.96 579.40,196.27 C578.94,196.73 581.57,211.77 583.69,220.75 C584.21,222.98 584.12,223.00 573.11,223.00 C567.00,223.00 562.00,222.61 562.00,222.14 ZM 562.00 229.03 C562.00,227.11 562.61,227.00 573.07,227.00 C583.08,227.00 584.11,227.17 583.81,228.75 C583.52,230.27 582.04,230.54 572.74,230.78 C562.51,231.05 562.00,230.97 562.00,229.03 Z" fill="rgb(221,179,7)"/>
<path d="M 654.00 405.31 C654.00,407.21 651.41,410.46 650.74,409.40 C649.58,407.51 651.34,402.89 654.11,400.56 C656.11,398.88 658.73,397.96 662.74,397.54 C673.04,396.46 676.22,395.57 677.68,393.36 C678.95,391.44 678.86,390.95 676.80,388.60 C675.05,386.61 671.71,385.20 662.83,382.71 C656.41,380.92 650.22,378.61 649.08,377.57 C646.62,375.35 646.44,372.26 648.50,367.35 C650.72,362.04 650.37,360.20 646.75,357.99 C642.09,355.15 641.59,355.51 644.42,359.67 C645.79,361.68 646.71,363.66 646.46,364.06 C646.22,364.46 642.93,363.53 639.16,362.00 C627.81,357.38 626.13,356.26 625.19,352.74 C624.13,348.71 625.25,348.14 629.61,350.49 C631.71,351.62 633.54,351.97 634.70,351.45 C636.27,350.75 636.18,350.59 634.00,350.24 C632.62,350.01 630.45,348.85 629.16,347.66 C626.91,345.58 625.98,345.50 605.16,345.50 L 583.50 345.50 L 583.18 343.25 C582.90,341.26 583.29,341.00 586.68,340.98 C589.51,340.97 590.11,340.72 589.00,340.00 C588.17,339.47 586.49,339.02 585.25,339.02 C583.67,339.00 583.00,338.40 583.00,337.00 C583.00,335.36 583.67,335.00 586.75,334.98 C589.54,334.97 590.12,334.72 589.00,334.00 C588.17,333.47 586.49,333.02 585.25,333.02 C583.67,333.00 583.00,332.40 583.00,331.00 C583.00,329.27 583.67,329.00 587.87,329.00 C591.22,329.00 593.52,329.62 595.27,331.00 C597.50,332.75 599.33,333.00 609.85,333.00 C616.79,333.00 622.14,333.42 622.50,334.00 C622.84,334.55 623.77,335.00 624.56,335.00 C627.39,335.00 625.93,333.00 621.42,330.71 L 616.84 328.38 L 624.42 321.60 C628.59,317.87 631.75,314.41 631.44,313.91 C631.13,313.41 628.92,313.00 626.51,313.00 C621.96,313.00 618.69,310.96 619.58,308.66 C619.93,307.75 621.76,307.50 625.91,307.80 C629.92,308.09 631.99,307.83 632.52,306.96 C633.13,305.98 632.18,305.85 628.22,306.38 C623.71,306.98 622.98,306.81 621.60,304.83 C619.76,302.21 620.30,301.17 622.54,303.03 C623.87,304.14 624.61,304.07 627.07,302.62 C628.68,301.67 630.42,301.14 630.93,301.46 C631.44,301.77 632.14,301.59 632.47,301.05 C633.39,299.56 628.46,298.67 622.93,299.32 C618.72,299.82 617.87,299.62 616.96,297.93 C615.49,295.17 616.10,294.59 623.22,292.02 C626.77,290.74 630.59,288.52 632.00,286.93 C634.05,284.61 636.00,283.83 642.87,282.58 C652.23,280.89 652.70,281.00 659.88,286.80 C663.67,289.87 664.04,290.50 662.66,291.50 C661.27,292.52 661.57,293.15 665.04,296.54 C669.57,300.96 669.90,302.00 666.79,302.00 C664.84,302.00 665.09,302.52 668.97,306.46 C673.56,311.15 673.45,311.61 667.61,312.21 L 664.72 312.50 L 669.42 318.25 C672.00,321.42 673.86,324.42 673.54,324.94 C673.22,325.45 671.30,325.60 669.26,325.27 L 665.55 324.67 L 667.43 327.58 C668.46,329.19 670.60,332.15 672.18,334.18 C673.76,336.20 674.70,338.06 674.28,338.32 C673.85,338.58 670.35,338.20 666.50,337.47 C660.86,336.41 659.36,336.39 658.79,337.41 C658.40,338.11 657.27,339.68 656.28,340.90 L 654.48 343.13 L 651.59 338.56 L 648.71 334.00 L 645.49 337.73 C642.65,341.01 642.06,341.29 640.61,340.09 C638.12,338.02 637.64,339.41 639.56,343.12 L 641.27 346.42 L 644.38 342.71 C646.10,340.67 648.05,339.00 648.73,339.00 C649.41,339.00 650.88,340.80 652.00,343.00 C653.12,345.20 654.37,347.00 654.77,347.00 C655.17,347.00 656.40,345.65 657.50,344.00 C658.60,342.35 659.76,341.00 660.07,341.00 C660.39,341.00 660.61,343.89 660.57,347.43 C660.52,352.47 660.95,354.46 662.60,356.68 C666.50,361.91 673.39,362.37 675.96,357.57 C677.02,355.60 677.10,351.96 676.39,339.88 L 675.50 324.67 L 678.10 321.89 C679.53,320.37 682.00,318.83 683.60,318.47 C688.67,317.35 689.00,317.11 689.00,314.53 C689.00,313.14 689.24,312.00 689.53,312.00 C689.83,312.00 691.70,313.64 693.70,315.64 C696.98,318.92 697.18,319.40 695.67,320.50 C694.75,321.17 694.00,322.68 694.00,323.86 C694.00,326.85 692.74,326.53 690.66,323.00 C688.47,319.30 685.75,319.16 682.32,322.58 C679.90,325.00 679.78,325.60 680.36,331.83 C680.70,335.50 681.26,343.00 681.60,348.50 C682.19,358.05 682.11,358.66 679.72,362.14 L 677.21 365.78 L 679.61 366.87 C683.39,368.59 685.99,373.79 686.00,379.63 C686.00,385.11 686.88,386.43 691.26,387.53 C694.45,388.33 694.57,388.72 692.38,391.14 C690.02,393.74 690.38,397.31 693.38,401.25 C694.82,403.14 696.00,405.90 696.00,407.37 L 696.00 410.06 L 683.25 409.78 C670.89,409.51 670.49,409.43 670.18,407.25 C669.77,404.35 668.23,404.34 667.82,407.24 C667.47,409.71 664.23,410.92 663.59,408.82 C662.06,403.76 661.70,403.43 661.09,406.50 C660.66,408.62 659.83,409.59 658.24,409.82 C656.34,410.09 656.00,409.68 656.00,407.07 C656.00,405.38 655.55,404.00 655.00,404.00 C654.45,404.00 654.00,404.59 654.00,405.31 ZM 494.79 543.22 L 494.50 552.50 L 484.00 553.10 L 484.00 436.00 L 487.44 436.00 C490.58,436.00 490.90,436.27 491.19,439.25 C491.46,442.11 491.89,442.54 494.75,442.81 C497.87,443.11 498.00,442.98 498.00,439.56 C498.00,436.07 498.08,436.00 502.00,436.00 C505.90,436.00 506.00,436.08 506.00,439.50 C506.00,442.72 506.24,443.00 509.00,443.00 C511.29,443.00 512.00,442.55 512.00,441.08 C512.00,437.25 513.14,436.00 516.62,436.00 L 520.02 436.00 L 519.50 552.50 L 514.18 552.80 L 508.87 553.11 L 509.36 542.80 C509.64,537.14 510.15,530.47 510.51,527.99 C511.05,524.26 510.79,523.00 509.01,520.74 C507.19,518.43 506.10,518.00 502.02,518.00 C497.84,518.00 496.82,518.42 494.59,521.08 C491.66,524.56 491.27,528.51 493.54,531.75 C494.71,533.43 495.01,536.14 494.79,543.22 ZM 562.02 472.00 L 561.50 552.50 L 523.00 553.04 L 523.00 472.00 L 526.50 472.00 C529.53,472.00 530.02,472.33 530.12,474.50 C530.19,475.88 530.31,477.56 530.38,478.25 C530.45,479.02 532.03,479.50 534.50,479.50 C538.40,479.50 538.51,479.41 538.81,475.75 C539.10,472.22 539.32,472.00 542.50,472.00 C545.68,472.00 545.90,472.22 546.19,475.75 C546.48,479.21 546.76,479.53 549.90,479.82 C553.70,480.19 554.96,478.93 554.98,474.75 C555.00,472.28 555.35,472.00 558.51,472.00 ZM 481.00 511.00 C481.00,533.34 480.62,550.00 480.10,550.00 C478.74,550.00 465.18,539.42 459.13,533.64 C456.18,530.81 451.12,525.21 447.88,521.18 L 442.00 513.87 L 442.00 472.00 L 445.44 472.00 C448.69,472.00 448.90,472.20 449.19,475.75 C449.48,479.28 449.71,479.52 453.19,479.81 C456.80,480.11 456.88,480.03 457.19,476.31 C457.48,472.71 457.70,472.48 461.19,472.19 C464.80,471.89 464.88,471.97 465.19,475.69 C465.48,479.30 465.69,479.52 469.25,479.81 L 473.00 480.12 L 473.00 472.00 L 481.00 472.00 ZM 614.82 407.16 C614.31,410.60 612.00,410.66 612.00,407.22 C612.00,403.41 615.96,399.42 620.60,398.55 C622.55,398.18 629.11,397.48 635.18,396.99 C646.73,396.05 651.00,394.47 651.00,391.15 C651.00,389.21 650.58,388.95 638.84,383.67 C630.60,379.95 628.21,377.34 630.00,374.00 C631.32,371.53 640.03,367.00 643.45,367.00 C645.85,367.00 645.94,367.19 645.34,371.54 C644.81,375.39 645.06,376.44 647.02,378.53 C649.57,381.23 657.14,384.37 663.82,385.48 C666.20,385.88 668.39,386.86 668.70,387.66 C669.52,389.81 664.12,395.00 661.06,395.00 C658.26,395.01 652.22,398.31 650.35,400.87 C649.70,401.76 648.66,404.20 648.03,406.28 L 646.90 410.08 L 639.20 409.79 C631.61,409.50 631.50,409.46 631.18,406.73 C630.80,403.37 629.00,404.11 629.00,407.63 C629.00,409.66 628.57,410.08 626.75,409.82 C625.30,409.61 624.39,408.70 624.18,407.25 C624.00,406.01 623.47,405.00 623.00,405.00 C622.53,405.00 622.00,406.01 621.82,407.25 C621.39,410.27 617.00,411.07 617.00,408.13 C617.00,405.31 615.21,404.51 614.82,407.16 ZM 613.27 329.30 C613.40,329.93 612.52,330.60 611.32,330.79 C609.56,331.06 607.92,329.38 602.82,322.11 L 596.50 313.10 L 583.50 312.50 L 583.13 298.00 L 589.88 298.00 C596.26,298.00 596.75,298.17 598.91,301.09 C600.16,302.79 606.10,307.33 612.09,311.19 C618.09,315.05 623.00,318.57 623.00,319.01 C623.00,319.45 620.76,321.69 618.02,323.98 C615.29,326.27 613.15,328.66 613.27,329.30 ZM 495.67 471.33 C496.03,471.70 498.96,472.00 502.17,472.00 L 508.00 472.00 L 508.00 465.00 C508.00,459.33 507.62,457.62 506.00,456.00 C503.32,453.32 500.43,453.48 497.45,456.45 C495.41,458.50 495.00,459.88 495.00,464.79 C495.00,468.02 495.30,470.97 495.67,471.33 ZM 455.00 501.60 L 455.00 509.10 L 461.25 508.80 L 467.50 508.50 L 467.34 501.68 C467.11,491.95 463.17,488.39 457.22,492.56 C455.26,493.93 455.00,495.00 455.00,501.60 ZM 536.00 501.56 L 536.00 509.00 L 548.00 509.00 L 548.00 501.83 C548.00,496.56 547.56,494.17 546.35,492.83 C544.32,490.59 541.18,490.48 538.22,492.56 C536.26,493.93 536.00,495.00 536.00,501.56 Z" fill="rgb(230,194,83)"/>
<path d="M 583.35 332.33 C583.70,332.80 584.32,333.01 585.25,333.02 C586.49,333.02 588.17,333.47 589.00,334.00 C590.12,334.72 589.54,334.97 586.75,334.98 C583.67,335.00 583.00,335.36 583.00,337.00 C583.00,338.40 583.67,339.00 585.25,339.02 C586.49,339.02 588.17,339.47 589.00,340.00 C590.11,340.72 589.51,340.97 586.68,340.98 C583.29,341.00 582.90,341.26 583.18,343.25 L 583.35 344.47 C582.48,342.31 581.97,335.14 582.80,334.63 C583.21,334.37 583.42,333.42 583.35,332.33 ZM 618.77 329.36 L 621.42 330.71 C625.93,333.00 627.39,335.00 624.56,335.00 C623.77,335.00 622.84,334.55 622.50,334.00 C622.23,333.56 619.09,333.21 614.56,333.07 C619.69,333.02 623.33,332.75 623.20,332.36 C623.04,331.89 621.54,330.80 619.88,329.94 ZM 606.28 332.99 C598.86,332.91 597.22,332.53 595.27,331.00 C597.07,332.39 598.94,332.81 606.28,332.99 ZM 595.27 331.00 C594.43,330.34 593.47,329.85 592.32,329.52 C593.45,329.84 594.40,330.31 595.21,330.95 C595.23,330.97 595.25,330.98 595.27,331.00 Z" fill="rgb(235,78,66)"/>
<path d="M 573.00 254.58 C592.40,254.60 596.90,254.90 605.66,256.80 C673.24,271.44 722.45,320.60 737.18,388.14 C739.14,397.18 739.43,401.37 739.43,421.00 L 573.00 421.00 L 573.00 587.77 C562.68,587.81 552.66,587.25 546.00,586.03 C483.31,574.56 433.35,531.73 414.18,473.00 C407.95,453.93 406.64,445.10 406.58,421.00 L 573.00 421.00 ZM 654.00 405.31 C654.00,404.59 654.45,404.00 655.00,404.00 C655.55,404.00 656.00,405.38 656.00,407.07 C656.00,409.68 656.34,410.09 658.24,409.82 C659.83,409.59 660.66,408.62 661.09,406.50 C661.70,403.43 662.06,403.76 663.59,408.82 C664.23,410.92 667.47,409.71 667.82,407.24 C668.23,404.34 669.77,404.35 670.18,407.25 C670.49,409.43 670.89,409.51 683.25,409.78 L 696.00 410.06 L 696.00 407.37 C696.00,405.90 694.82,403.14 693.38,401.25 C690.38,397.31 690.02,393.74 692.38,391.14 C694.57,388.72 694.45,388.33 691.26,387.53 C686.88,386.43 686.00,385.11 686.00,379.63 C685.99,373.79 683.39,368.59 679.61,366.87 L 677.21 365.78 L 679.72 362.14 C682.11,358.66 682.19,358.05 681.60,348.50 C681.26,343.00 680.70,335.50 680.36,331.83 C679.78,325.60 679.90,325.00 682.32,322.58 C685.75,319.16 688.47,319.30 690.66,323.00 C692.74,326.53 694.00,326.85 694.00,323.86 C694.00,322.68 694.75,321.17 695.67,320.50 C697.18,319.40 696.98,318.92 693.70,315.64 C691.70,313.64 689.83,312.00 689.53,312.00 C689.24,312.00 689.00,313.14 689.00,314.53 C689.00,317.11 688.67,317.35 683.60,318.47 C682.00,318.83 679.53,320.37 678.10,321.89 L 675.50 324.67 L 676.39 339.88 C677.10,351.96 677.02,355.60 675.96,357.57 C673.39,362.37 666.50,361.91 662.60,356.68 C660.95,354.46 660.52,352.47 660.57,347.43 C660.61,343.89 660.39,341.00 660.07,341.00 C659.76,341.00 658.60,342.35 657.50,344.00 C656.40,345.65 655.17,347.00 654.77,347.00 C654.37,347.00 653.12,345.20 652.00,343.00 C650.88,340.80 649.41,339.00 648.73,339.00 C648.05,339.00 646.10,340.67 644.38,342.71 L 641.27 346.42 L 639.56 343.12 C637.64,339.41 638.12,338.02 640.61,340.09 C642.06,341.29 642.65,341.01 645.49,337.73 L 648.71 334.00 L 651.59 338.56 L 654.48 343.13 L 656.28 340.90 C657.27,339.68 658.40,338.11 658.79,337.41 C659.36,336.39 660.86,336.41 666.50,337.47 C670.35,338.20 673.85,338.58 674.28,338.32 C674.70,338.06 673.76,336.20 672.18,334.18 C670.60,332.15 668.46,329.19 667.43,327.58 L 665.55 324.67 L 669.26 325.27 C671.30,325.60 673.22,325.45 673.54,324.94 C673.86,324.42 672.00,321.42 669.42,318.25 L 664.72 312.50 L 667.61 312.21 C673.45,311.61 673.56,311.15 668.97,306.46 C665.09,302.52 664.84,302.00 666.79,302.00 C669.90,302.00 669.57,300.96 665.04,296.54 C661.57,293.15 661.27,292.52 662.66,291.50 C664.04,290.50 663.67,289.87 659.88,286.80 C652.70,281.00 652.23,280.89 642.87,282.58 C636.00,283.83 634.05,284.61 632.00,286.93 C630.59,288.52 626.77,290.74 623.22,292.02 C616.10,294.59 615.49,295.17 616.96,297.93 C617.87,299.62 618.72,299.82 622.93,299.32 C628.46,298.67 633.39,299.56 632.47,301.05 C632.14,301.59 631.44,301.77 630.93,301.46 C630.42,301.14 628.68,301.67 627.07,302.62 C624.61,304.07 623.87,304.14 622.54,303.03 C620.30,301.17 619.76,302.21 621.60,304.83 C622.98,306.81 623.71,306.98 628.22,306.38 C632.18,305.85 633.13,305.98 632.52,306.96 C631.99,307.83 629.92,308.09 625.91,307.80 C621.76,307.50 619.93,307.75 619.58,308.66 C618.69,310.96 621.96,313.00 626.51,313.00 C628.92,313.00 631.13,313.41 631.44,313.91 C631.75,314.41 628.59,317.87 624.42,321.60 L 616.84 328.38 L 618.77 329.36 L 618.77 329.36 L 619.88 329.94 C621.54,330.80 623.04,331.89 623.20,332.36 C623.33,332.75 619.69,333.02 614.56,333.07 C613.12,333.02 611.53,333.00 609.85,333.00 C608.53,333.00 607.34,333.00 606.28,332.99 C598.94,332.81 597.07,332.39 595.27,331.00 C595.25,330.98 595.23,330.97 595.21,330.95 C594.38,330.31 593.44,329.84 592.32,329.52 L 592.32 329.52 C591.07,329.17 589.61,329.00 587.87,329.00 L 587.79 329.00 L 587.77 329.00 L 587.75 329.00 C584.39,329.00 583.34,329.20 583.08,330.21 C583.02,330.43 583.00,330.69 583.00,331.00 C583.00,331.57 583.11,332.01 583.35,332.33 C583.42,333.42 583.21,334.37 582.80,334.63 C581.97,335.14 582.48,342.31 583.35,344.47 L 583.50 345.50 L 605.16 345.50 C625.98,345.50 626.91,345.58 629.16,347.66 C630.45,348.85 632.62,350.01 634.00,350.24 C636.18,350.59 636.27,350.75 634.70,351.45 C633.54,351.97 631.71,351.62 629.61,350.49 C625.25,348.14 624.13,348.71 625.19,352.74 C626.13,356.26 627.81,357.38 639.16,362.00 C642.93,363.53 646.22,364.46 646.46,364.06 C646.71,363.66 645.79,361.68 644.42,359.67 C641.59,355.51 642.09,355.15 646.75,357.99 C650.37,360.20 650.72,362.04 648.50,367.35 C646.44,372.26 646.62,375.35 649.08,377.57 C650.22,378.61 656.41,380.92 662.83,382.71 C671.71,385.20 675.05,386.61 676.80,388.60 C678.86,390.95 678.95,391.44 677.68,393.36 C676.22,395.57 673.04,396.46 662.74,397.54 C658.73,397.96 656.11,398.88 654.11,400.56 C651.34,402.89 649.58,407.51 650.74,409.40 C651.41,410.46 654.00,407.21 654.00,405.31 ZM 494.79 543.22 C495.01,536.14 494.71,533.43 493.54,531.75 C491.27,528.51 491.66,524.56 494.59,521.08 C496.82,518.42 497.84,518.00 502.02,518.00 C506.10,518.00 507.19,518.43 509.01,520.74 C510.79,523.00 511.05,524.26 510.51,527.99 C510.15,530.47 509.64,537.14 509.36,542.80 L 508.87 553.11 L 514.18 552.80 L 519.50 552.50 L 520.02 436.00 L 516.62 436.00 C513.14,436.00 512.00,437.25 512.00,441.08 C512.00,442.55 511.29,443.00 509.00,443.00 C506.24,443.00 506.00,442.72 506.00,439.50 C506.00,436.08 505.90,436.00 502.00,436.00 C498.08,436.00 498.00,436.07 498.00,439.56 C498.00,442.98 497.87,443.11 494.75,442.81 C491.89,442.54 491.46,442.11 491.19,439.25 C490.90,436.27 490.58,436.00 487.44,436.00 L 484.00 436.00 L 484.00 553.10 L 494.50 552.50 ZM 562.02 472.00 L 558.51 472.00 C555.35,472.00 555.00,472.28 554.98,474.75 C554.96,478.93 553.70,480.19 549.90,479.82 C546.76,479.53 546.48,479.21 546.19,475.75 C545.90,472.22 545.68,472.00 542.50,472.00 C539.32,472.00 539.10,472.22 538.81,475.75 C538.51,479.41 538.40,479.50 534.50,479.50 C532.03,479.50 530.45,479.02 530.38,478.25 C530.31,477.56 530.19,475.88 530.12,474.50 C530.02,472.33 529.53,472.00 526.50,472.00 L 523.00 472.00 L 523.00 553.04 L 561.50 552.50 ZM 481.00 511.00 L 481.00 472.00 L 473.00 472.00 L 473.00 480.12 L 469.25 479.81 C465.69,479.52 465.48,479.30 465.19,475.69 C464.88,471.97 464.80,471.89 461.19,472.19 C457.70,472.48 457.48,472.71 457.19,476.31 C456.88,480.03 456.80,480.11 453.19,479.81 C449.71,479.52 449.48,479.28 449.19,475.75 C448.90,472.20 448.69,472.00 445.44,472.00 L 442.00 472.00 L 442.00 513.87 L 447.88 521.18 C451.12,525.21 456.18,530.81 459.13,533.64 C465.18,539.42 478.74,550.00 480.10,550.00 C480.62,550.00 481.00,533.34 481.00,511.00 ZM 614.82 407.16 C615.21,404.51 617.00,405.31 617.00,408.13 C617.00,411.07 621.39,410.27 621.82,407.25 C622.00,406.01 622.53,405.00 623.00,405.00 C623.47,405.00 624.00,406.01 624.18,407.25 C624.39,408.70 625.30,409.61 626.75,409.82 C628.57,410.08 629.00,409.66 629.00,407.63 C629.00,404.11 630.80,403.37 631.18,406.73 C631.50,409.46 631.61,409.50 639.20,409.79 L 646.90 410.08 L 648.03 406.28 C648.66,404.20 649.70,401.76 650.35,400.87 C652.22,398.31 658.26,395.01 661.06,395.00 C664.12,395.00 669.52,389.81 668.70,387.66 C668.39,386.86 666.20,385.88 663.82,385.48 C657.14,384.37 649.57,381.23 647.02,378.53 C645.06,376.44 644.81,375.39 645.34,371.54 C645.94,367.19 645.85,367.00 643.45,367.00 C640.03,367.00 631.32,371.53 630.00,374.00 C628.21,377.34 630.60,379.95 638.84,383.67 C650.58,388.95 651.00,389.21 651.00,391.15 C651.00,394.47 646.73,396.05 635.18,396.99 C629.11,397.48 622.55,398.18 620.60,398.55 C615.96,399.42 612.00,403.41 612.00,407.22 C612.00,410.66 614.31,410.60 614.82,407.16 ZM 613.27 329.30 C613.15,328.66 615.29,326.27 618.02,323.98 C620.76,321.69 623.00,319.45 623.00,319.01 C623.00,318.57 618.09,315.05 612.09,311.19 C606.10,307.33 600.16,302.79 598.91,301.09 C596.75,298.17 596.26,298.00 589.88,298.00 L 583.13 298.00 L 583.50 312.50 L 596.50 313.10 L 602.82 322.11 C607.92,329.38 609.56,331.06 611.32,330.79 C612.52,330.60 613.40,329.93 613.27,329.30 ZM 495.67 471.33 C495.30,470.97 495.00,468.02 495.00,464.79 C495.00,459.88 495.41,458.50 497.45,456.45 C500.43,453.48 503.32,453.32 506.00,456.00 C507.62,457.62 508.00,459.33 508.00,465.00 L 508.00 472.00 L 502.17 472.00 C498.96,472.00 496.03,471.70 495.67,471.33 ZM 455.00 501.60 C455.00,495.00 455.26,493.93 457.22,492.56 C463.17,488.39 467.11,491.95 467.34,501.68 L 467.50 508.50 L 461.25 508.80 L 455.00 509.10 ZM 536.00 501.56 C536.00,495.00 536.26,493.93 538.22,492.56 C541.18,490.48 544.32,490.59 546.35,492.83 C547.56,494.17 548.00,496.56 548.00,501.83 L 548.00 509.00 L 536.00 509.00 ZM 510.87 265.74 C487.57,275.16 466.07,289.94 448.98,308.69 C465.80,290.07 486.76,275.42 510.87,265.74 ZM 411.77 376.02 C409.32,384.77 407.64,393.63 406.79,402.45 C407.06,396.30 407.62,392.77 408.76,387.69 C409.65,383.73 410.65,379.85 411.77,376.02 ZM 726.15 487.63 C721.38,498.59 715.63,508.96 709.23,518.00 C707.17,520.90 704.55,524.17 701.59,527.57 C709.88,517.81 716.24,507.94 722.44,495.50 C723.75,492.86 724.99,490.24 726.15,487.63 ZM 679.64 549.55 C676.21,552.53 672.93,555.17 670.00,557.25 C660.97,563.68 650.48,569.49 639.46,574.28 C642.12,573.10 644.79,571.83 647.50,570.49 C659.91,564.30 669.81,557.91 679.64,549.55 ZM 554.10 254.86 C544.08,255.89 534.11,257.95 524.34,260.95 C529.44,259.37 534.67,257.99 540.00,256.84 C545.10,255.73 548.62,255.15 554.10,254.86 ZM 739.11 440.28 C738.81,445.50 738.24,448.95 737.20,453.75 C736.65,456.25 736.04,458.76 735.37,461.28 C737.14,454.33 738.38,447.35 739.11,440.28 ZM 610.95 584.01 C609.46,584.38 607.98,584.72 606.50,585.04 C604.42,585.49 602.01,585.89 599.37,586.23 C603.26,585.65 607.11,584.91 610.95,584.01 Z" fill="rgb(237,58,66)"/>
<path d="M 573.00 504.65 L 573.00 421.00 L 489.35 421.00 L 405.70 421.00 L 406.33 408.75 C408.00,376.28 421.17,342.71 442.71,316.00 C471.85,279.88 516.88,256.53 561.75,254.27 L 573.00 253.70 L 573.00 337.35 L 573.00 421.00 L 656.65 421.00 L 740.30 421.00 L 739.73 432.25 C738.65,453.79 733.08,474.16 722.44,495.50 C713.84,512.75 704.94,525.06 691.00,539.00 C676.99,553.01 664.65,561.94 647.50,570.49 C626.03,581.18 606.39,586.57 584.75,587.69 L 573.00 588.29 L 573.00 504.65 ZM 598.09 576.13 C602.84,572.28 599.90,563.00 593.94,563.00 C588.32,563.00 584.39,568.06 586.18,573.01 C588.02,578.11 593.78,579.62 598.09,576.13 ZM 625.69 569.83 C630.35,565.45 627.12,557.00 620.78,557.00 C617.16,557.00 613.00,561.01 613.00,564.50 C613.00,567.91 617.17,572.00 620.64,572.00 C622.14,572.00 624.41,571.02 625.69,569.83 ZM 651.93 558.37 C654.60,554.97 654.56,551.23 651.83,548.31 C647.40,543.60 639.00,547.00 639.00,553.50 C639.00,560.23 647.84,563.56 651.93,558.37 ZM 603.76 553.00 C610.67,548.79 611.75,539.59 606.00,533.85 C603.60,531.45 602.33,531.00 597.98,531.00 C593.42,531.00 592.39,531.41 589.40,534.40 C586.54,537.26 586.00,538.51 586.00,542.32 C586.00,548.36 586.62,549.67 590.86,552.55 C595.22,555.52 599.40,555.66 603.76,553.00 ZM 637.80 547.19 C644.93,542.58 644.48,530.37 637.03,526.52 C628.30,522.00 619.00,527.78 619.00,537.73 C619.00,542.64 621.22,545.75 626.38,548.06 C630.73,550.01 633.82,549.77 637.80,547.19 ZM 674.58 542.75 C683.76,534.33 677.55,520.89 665.12,522.29 C658.78,523.00 655.00,527.22 655.00,533.58 C655.00,539.18 656.20,541.54 660.31,544.05 C665.28,547.08 670.36,546.62 674.58,542.75 ZM 609.03 517.75 C627.05,508.65 617.56,481.69 598.16,486.88 C590.15,489.02 585.78,494.80 585.85,503.17 C585.90,510.01 588.94,514.60 595.40,517.61 C601.73,520.55 603.44,520.57 609.03,517.75 ZM 657.46 514.60 C662.10,511.06 664.00,507.19 664.00,501.28 C664.00,491.36 657.75,485.00 648.00,485.00 C634.49,485.00 626.75,498.07 633.47,509.54 C638.45,518.04 649.81,520.43 657.46,514.60 ZM 700.57 512.51 C710.45,506.72 711.69,493.62 703.12,485.56 C700.58,483.17 698.92,482.55 694.14,482.20 C682.97,481.40 676.00,487.50 676.00,498.08 C676.00,504.88 678.62,509.37 684.53,512.72 C689.80,515.70 695.24,515.64 700.57,512.51 ZM 614.73 469.86 C621.41,465.73 625.77,456.96 624.51,450.18 C622.61,439.93 615.50,434.00 605.11,434.00 C597.93,434.00 594.56,435.46 590.16,440.47 C586.34,444.82 585.64,447.36 586.19,454.94 C586.51,459.37 587.28,461.68 589.36,464.40 C595.54,472.50 606.60,474.88 614.73,469.86 ZM 666.92 469.22 C679.38,461.57 678.73,442.13 665.80,435.40 C659.46,432.11 646.56,434.40 641.79,439.68 C636.98,445.00 635.68,454.52 638.91,460.79 C644.74,472.12 656.45,475.64 666.92,469.22 ZM 713.28 471.94 C720.96,469.81 727.94,460.81 727.97,453.00 C727.99,448.02 723.82,439.72 719.91,436.93 C717.50,435.22 714.85,434.46 710.32,434.17 C702.26,433.66 699.85,434.31 695.37,438.25 C690.82,442.25 689.00,446.45 689.00,453.01 C689.00,461.87 693.87,468.40 702.89,471.62 C707.36,473.22 708.54,473.26 713.28,471.94 ZM 447.26 406.87 C452.93,403.98 457.00,397.04 457.00,390.27 C457.00,383.47 455.23,379.29 450.66,375.28 C436.23,362.60 413.96,376.27 418.93,394.75 C420.77,401.56 426.03,406.58 433.99,409.10 C437.33,410.15 442.54,409.28 447.26,406.87 ZM 494.28 408.94 C505.26,405.89 511.80,392.64 507.45,382.23 C504.16,374.35 498.43,370.65 489.50,370.65 C480.85,370.65 475.54,373.94 471.62,381.70 C469.64,385.62 469.52,392.96 471.38,397.28 C473.37,401.92 479.05,406.92 484.12,408.50 C489.59,410.21 489.70,410.21 494.28,408.94 ZM 545.50 408.90 C554.45,406.45 560.41,398.61 560.33,389.39 C560.25,380.41 554.80,373.37 546.13,371.04 C532.16,367.27 518.54,380.18 522.00,393.90 C523.92,401.57 528.90,406.60 536.99,409.07 C540.51,410.13 541.00,410.12 545.50,408.90 ZM 462.08 358.73 C470.19,353.26 472.41,343.79 467.53,335.47 C464.27,329.90 459.50,327.63 452.32,328.22 C443.43,328.96 437.92,334.45 437.29,343.21 C437.00,347.39 437.40,349.34 439.23,352.48 C443.86,360.46 454.99,363.50 462.08,358.73 ZM 507.86 355.10 C512.64,351.70 515.32,345.71 514.75,339.75 C514.22,334.27 511.95,330.62 506.91,327.16 C504.06,325.21 502.55,324.89 497.74,325.23 C488.27,325.89 482.00,332.25 482.00,341.20 C482.00,348.46 484.70,352.81 491.50,356.48 C495.65,358.73 503.73,358.04 507.86,355.10 ZM 552.92 353.67 C562.59,347.27 562.48,332.85 552.70,325.61 C548.74,322.68 539.79,322.73 534.96,325.72 C526.24,331.11 524.46,343.40 531.32,350.88 C537.09,357.19 545.89,358.32 552.92,353.67 ZM 485.46 319.62 C486.69,318.81 488.49,316.50 489.44,314.48 C494.08,304.70 484.95,294.68 474.60,298.18 C469.28,299.98 466.47,303.97 466.60,309.57 C466.80,319.08 477.55,324.80 485.46,319.62 ZM 523.75 313.58 C528.29,308.62 528.34,302.60 523.90,297.53 C521.05,294.29 520.34,294.00 515.30,294.00 C510.38,294.00 509.44,294.36 506.40,297.40 C500.81,302.99 501.95,311.01 509.01,315.81 C513.98,319.17 519.37,318.36 523.75,313.58 ZM 554.03 310.48 C557.77,308.55 560.00,304.24 560.00,298.95 C560.00,295.56 559.37,294.17 556.60,291.40 C553.83,288.63 552.44,288.00 549.05,288.00 C541.05,288.00 536.00,292.86 536.00,300.57 C536.00,303.49 536.78,305.02 539.88,308.12 C544.25,312.48 548.72,313.23 554.03,310.48 ZM 504.55 294.55 C507.38,291.71 507.74,287.51 505.44,284.22 C504.28,282.56 502.88,282.00 499.94,282.00 C491.26,282.00 488.85,291.66 496.50,295.85 C499.64,297.56 501.89,297.20 504.55,294.55 ZM 531.25 282.85 C533.42,280.29 533.50,276.16 531.44,273.22 C530.24,271.50 528.90,271.00 525.50,271.00 C522.10,271.00 520.76,271.50 519.56,273.22 C513.96,281.22 524.96,290.27 531.25,282.85 ZM 556.08 277.08 C559.53,273.62 559.75,271.22 556.93,267.63 C555.34,265.62 553.97,265.00 551.08,265.00 C543.85,265.00 540.91,272.94 546.39,277.66 C550.00,280.76 552.54,280.61 556.08,277.08 Z" fill="rgb(241,222,161)"/>
</g>
</svg>