<svg xmlns="http://www.w3.org/2000/svg" width="512" height="512" viewBox="0 0 512 512">
<g>
<path d="M 0.00 0.00 L 512.00 0.00 L 512.00 512.00 L 0.00 512.00 ZM 131.00 286.07 C142.18,287.19 176.52,286.20 183.00,284.57 C191.31,282.47 205.45,277.31 212.26,273.87 C221.63,269.14 226.86,265.17 235.01,256.63 C243.25,247.98 246.62,243.40 251.07,234.75 C260.69,216.06 261.00,212.40 261.00,118.07 L 261.00 40.00 L 183.00 40.00 L 182.98 114.75 C182.96,162.64 182.58,191.11 181.92,193.99 C180.52,200.05 171.92,211.31 167.13,213.36 C161.96,215.56 152.72,217.20 149.36,216.50 C137.80,214.11 134.87,212.67 129.59,206.84 C126.71,203.65 123.72,199.35 122.96,197.27 C121.83,194.20 121.51,179.19 121.25,116.75 L 120.93 40.00 L 41.00 40.00 L 41.06 117.25 C41.12,197.12 41.28,200.89 45.45,219.46 C46.55,224.34 52.09,236.95 54.40,239.82 C55.59,241.29 57.73,244.31 59.15,246.52 C62.41,251.60 72.83,262.02 79.94,267.30 C86.15,271.91 95.94,276.87 104.00,279.48 C107.03,280.46 109.95,281.61 110.50,282.04 C111.94,283.16 122.30,285.19 131.00,286.07 ZM 388.50 286.51 C404.12,288.40 421.88,288.23 435.00,286.07 C445.48,284.34 461.62,279.31 469.05,275.47 L 472.00 273.95 L 472.00 239.47 C472.00,220.51 471.74,205.00 471.43,205.00 C471.12,205.00 468.87,206.37 466.44,208.04 C456.18,215.10 439.65,219.01 420.14,218.99 C407.01,218.97 399.79,217.45 388.00,212.24 C377.23,207.48 366.20,196.10 360.75,184.13 C357.65,177.32 356.61,170.08 356.95,157.75 C357.34,143.88 361.01,135.50 371.77,123.88 C379.02,116.05 383.26,113.41 394.46,109.78 C402.09,107.29 405.68,106.75 417.50,106.29 C430.47,105.78 432.28,105.94 442.00,108.44 C447.78,109.93 456.68,113.14 461.80,115.57 C466.91,118.01 471.30,120.00 471.55,120.00 C471.80,120.00 472.00,104.23 472.00,84.96 L 472.00 49.93 L 467.25 47.85 C461.30,45.25 443.92,40.31 435.71,38.89 C425.68,37.15 396.68,36.64 385.50,38.00 C376.23,39.13 358.20,44.04 350.00,47.66 C337.06,53.39 327.73,58.99 320.50,65.36 C308.86,75.62 301.00,83.30 301.00,84.40 C301.00,84.94 299.30,87.43 297.23,89.94 C284.16,105.77 275.20,134.31 274.65,161.84 C274.43,173.06 277.40,193.64 280.66,203.50 C287.75,224.91 304.18,247.41 323.50,262.15 C339.16,274.10 364.53,283.61 388.50,286.51 ZM 338.75 410.45 C339.16,410.88 344.23,411.00 350.00,410.72 C358.98,410.28 361.18,409.82 365.22,407.54 C374.01,402.56 377.92,395.46 377.98,384.40 C378.00,380.36 377.41,378.49 375.15,375.36 C371.63,370.50 366.56,366.15 363.67,365.53 C350.11,362.57 339.53,362.17 338.61,364.58 C337.73,366.88 337.86,409.52 338.75,410.45 ZM 434.75 410.43 C435.16,410.85 439.77,411.02 445.00,410.81 C453.51,410.46 455.17,410.06 460.87,407.01 C464.85,404.87 468.11,402.26 469.55,400.05 C474.10,393.03 473.60,377.64 468.63,372.15 C463.85,366.88 452.10,363.10 440.25,363.04 L 434.00 363.00 L 434.00 386.33 C434.00,399.17 434.34,410.01 434.75,410.43 ZM 41.00 428.00 L 41.00 472.00 L 47.75 471.99 C57.56,471.97 61.40,471.11 67.26,467.61 C71.99,464.79 72.72,463.86 74.82,457.99 C76.95,452.09 77.05,451.03 75.93,446.30 C73.21,434.76 62.46,428.15 46.25,428.04 ZM 348.00 428.00 L 348.00 472.00 L 357.05 472.00 C367.83,472.00 371.12,470.64 373.99,465.02 C377.06,458.99 376.62,456.36 371.72,451.46 C367.44,447.18 367.44,447.18 369.32,444.85 C370.71,443.14 371.07,441.52 370.68,438.67 C369.72,431.49 364.05,428.02 353.25,428.01 ZM 458.73 403.14 C456.11,404.48 451.89,405.40 446.83,405.75 L 439.00 406.29 L 439.00 366.79 L 447.21 367.52 C461.20,368.76 467.50,374.81 467.50,387.00 C467.50,395.00 464.75,400.07 458.73,403.14 ZM 363.78 402.64 C360.89,404.46 357.95,405.22 351.97,405.68 L 344.00 406.30 L 344.00 366.83 L 351.75 367.54 C359.48,368.25 362.64,369.36 366.58,372.75 C371.01,376.57 371.93,379.17 371.67,387.02 C371.38,395.65 369.75,398.87 363.78,402.64 ZM 242.70 410.37 C243.09,410.75 244.10,410.94 244.95,410.77 C246.21,410.53 246.55,408.49 246.78,399.74 L 247.07 389.00 L 256.90 389.00 L 264.11 399.59 C271.48,410.42 272.79,411.68 275.61,410.60 C277.01,410.06 276.90,409.55 274.78,406.74 C273.43,404.96 269.76,400.01 266.62,395.75 L 260.92 387.99 L 263.33 386.89 C266.46,385.47 270.00,379.13 270.00,374.96 C270.00,373.02 268.99,370.37 267.51,368.43 C264.63,364.64 258.86,363.00 248.45,363.00 L 242.00 363.00 L 242.00 386.33 C242.00,399.17 242.32,409.98 242.70,410.37 ZM 62.78 465.60 C59.39,467.33 56.42,468.00 52.20,468.00 C48.97,468.00 46.03,467.70 45.67,467.33 C45.30,466.97 45.00,458.82 45.00,449.23 L 45.00 431.80 L 52.25 432.52 C65.68,433.85 71.31,439.11 71.41,450.41 C71.48,458.24 69.14,462.36 62.78,465.60 ZM 90.70 410.37 C91.09,410.75 92.10,410.94 92.95,410.77 C94.27,410.52 94.54,407.67 94.77,391.24 C94.92,380.66 95.43,372.00 95.90,372.00 C96.37,372.00 99.47,375.49 102.80,379.75 C106.12,384.01 110.95,389.75 113.53,392.50 C116.11,395.25 120.93,400.54 124.25,404.25 C127.57,407.96 130.68,411.00 131.15,411.00 C132.10,411.00 132.31,368.76 131.37,365.25 C130.96,363.71 130.01,363.00 128.38,363.00 L 126.00 363.00 L 125.93 399.50 L 121.22 394.12 C97.28,366.80 93.70,363.00 91.93,363.00 C90.08,363.00 90.00,363.93 90.00,386.33 C90.00,399.17 90.32,409.98 90.70,410.37 ZM 385.00 449.85 C385.00,471.33 385.06,472.00 387.00,472.00 C388.87,472.00 389.00,471.33 389.00,462.00 L 389.00 452.00 L 392.91 452.00 C396.70,452.00 397.03,452.29 404.16,461.99 C410.52,470.64 411.89,471.97 414.40,471.99 L 417.31 472.00 L 415.40 469.77 C414.36,468.54 413.01,467.08 412.41,466.52 C411.82,465.96 409.02,462.26 406.20,458.31 C401.73,452.05 401.30,451.04 402.87,450.54 C406.07,449.53 409.15,445.31 409.70,441.19 C410.19,437.57 409.86,436.77 406.37,433.05 C402.54,428.96 402.42,428.91 393.75,428.31 L 385.00 427.70 ZM 385.65 410.24 C386.54,411.69 390.07,410.99 390.64,409.25 C390.95,408.29 392.15,405.14 393.29,402.25 L 395.37 397.00 L 415.76 397.00 L 418.13 403.75 C420.01,409.11 420.96,410.57 422.75,410.82 C423.99,411.00 425.00,410.62 425.00,409.98 C425.00,409.35 423.02,403.80 420.60,397.66 C418.19,391.52 414.05,380.99 411.42,374.25 C408.78,367.51 406.34,362.00 405.99,362.00 C405.05,362.00 394.60,385.96 390.50,397.50 C389.72,399.70 388.20,403.30 387.13,405.49 C386.06,407.69 385.39,409.83 385.65,410.24 ZM 438.00 470.45 C438.00,471.30 438.84,472.00 439.88,472.00 C441.17,472.00 442.41,470.47 443.88,467.06 C445.04,464.35 446.00,461.65 446.00,461.06 C446.00,460.39 449.39,460.00 455.28,460.00 L 464.57 460.00 L 467.42 466.00 C469.40,470.17 470.84,472.00 472.13,472.00 C473.16,472.00 474.00,471.83 474.00,471.62 C474.00,470.81 468.81,457.30 466.95,453.26 C465.88,450.93 465.00,448.61 465.00,448.11 C465.00,447.61 463.47,443.44 461.60,438.85 C459.74,434.26 457.95,429.71 457.64,428.75 C457.32,427.79 456.65,427.00 456.14,427.00 C455.30,427.00 452.35,433.28 451.43,437.00 C450.85,439.37 441.51,462.16 439.66,465.70 C438.75,467.46 438.00,469.60 438.00,470.45 ZM 177.00 471.56 C177.00,471.80 177.81,472.00 178.80,472.00 C180.60,472.00 185.00,464.54 185.00,461.47 C185.00,460.28 186.79,460.00 194.44,460.00 L 203.89 460.00 L 206.58 466.00 C208.55,470.39 209.80,472.00 211.24,472.00 C212.72,472.00 213.04,471.56 212.51,470.25 C212.12,469.29 211.72,468.03 211.62,467.44 C211.52,466.86 210.05,463.04 208.35,458.94 C200.41,439.85 198.18,434.32 197.49,432.00 C195.85,426.44 193.48,425.54 192.48,430.10 C191.85,432.96 190.05,437.59 186.42,445.65 C185.64,447.38 185.00,449.41 184.99,450.15 C184.99,450.89 184.32,452.77 183.51,454.33 C182.14,456.95 177.00,470.56 177.00,471.56 ZM 304.52 469.75 C304.00,471.54 304.27,472.00 305.81,472.00 C307.19,472.00 308.37,470.56 309.88,467.06 C311.04,464.35 312.00,461.65 312.00,461.06 C312.00,460.39 315.43,460.00 321.44,460.00 L 330.89 460.00 L 333.58 466.00 C335.52,470.33 336.81,472.00 338.20,472.00 C340.49,472.00 340.37,471.47 335.31,459.00 C333.42,454.33 331.63,449.60 331.33,448.50 C331.04,447.40 329.94,444.59 328.90,442.26 C327.85,439.93 327.00,437.75 327.00,437.41 C327.00,437.08 326.37,435.38 325.61,433.65 C324.84,431.92 323.96,429.71 323.64,428.75 C322.73,425.99 321.51,426.68 320.10,430.75 C319.38,432.81 317.21,438.33 315.28,443.00 C306.94,463.13 305.13,467.63 304.52,469.75 ZM 248.34 461.82 C253.75,467.97 258.36,473.00 258.59,473.00 C258.81,473.00 259.00,462.88 259.00,450.50 C259.00,428.67 258.94,428.00 257.00,428.00 C255.08,428.00 255.00,428.67 255.00,444.50 C255.00,453.58 254.70,461.00 254.33,461.00 C253.75,461.00 245.64,452.59 241.77,447.98 C228.10,431.69 224.62,428.00 222.93,428.00 C221.08,428.00 221.00,428.92 221.00,450.00 C221.00,471.33 221.06,472.00 223.00,472.00 C224.92,472.00 225.00,471.33 225.00,454.50 C225.00,444.09 225.39,437.00 225.95,437.00 C226.47,437.00 229.51,440.07 232.70,443.82 C235.89,447.58 242.93,455.68 248.34,461.82 ZM 49.84 409.18 C51.85,410.07 56.32,410.85 59.77,410.90 C64.86,410.98 66.79,410.52 70.06,408.46 C77.47,403.79 77.99,401.99 78.00,381.25 L 78.00 363.00 L 73.00 363.00 L 73.00 380.43 C73.00,390.02 72.56,399.02 72.02,400.43 C69.58,406.88 55.86,409.58 50.90,404.59 C45.42,399.10 45.54,399.57 45.15,380.78 L 44.78 363.00 L 39.83 363.00 L 40.17 379.75 C40.49,395.88 40.61,396.71 43.34,402.02 C45.47,406.15 47.11,407.96 49.84,409.18 ZM 206.69 410.36 C207.08,410.74 213.26,410.93 220.44,410.78 C233.07,410.51 233.51,410.43 233.82,408.28 C234.12,406.12 233.85,406.06 222.96,405.78 L 211.79 405.50 L 211.41 401.00 C211.19,398.52 211.28,394.83 211.59,392.79 L 212.16 389.08 L 219.82 388.79 C226.18,388.55 227.53,388.20 227.81,386.75 C228.11,385.21 227.25,385.00 220.82,384.98 C216.80,384.98 212.92,384.60 212.21,384.15 C211.28,383.56 210.99,381.07 211.21,375.41 L 211.50 367.50 L 221.25 367.21 C230.18,366.95 231.00,366.76 231.00,364.96 C231.00,363.12 230.26,363.00 218.50,363.00 L 206.00 363.00 L 206.00 386.33 C206.00,399.17 206.31,409.98 206.69,410.36 ZM 283.25 409.33 C284.79,410.40 287.89,410.91 293.10,410.95 C299.41,410.99 301.28,410.61 304.09,408.72 C308.08,406.03 309.96,402.71 309.99,398.32 C310.01,393.09 308.32,390.20 303.53,387.27 C301.03,385.75 296.81,383.16 294.13,381.53 C288.39,378.03 286.63,374.55 288.65,370.69 C290.55,367.08 296.48,366.07 303.98,368.10 C304.88,368.35 305.58,367.68 305.78,366.38 C306.18,363.80 303.90,363.03 295.71,363.01 C289.76,363.00 285.00,365.01 285.00,367.53 C285.00,368.25 284.49,369.00 283.86,369.21 C283.24,369.42 282.73,371.47 282.73,373.77 C282.73,379.56 286.24,383.81 294.47,387.99 C303.93,392.79 306.72,396.92 303.96,402.07 C301.45,406.77 289.92,408.16 284.56,404.41 C281.75,402.44 281.00,402.64 281.00,405.38 C281.00,406.71 281.99,408.44 283.25,409.33 ZM 177.03 408.58 C177.57,410.00 178.51,411.00 179.11,410.80 C179.72,410.59 182.67,404.14 185.68,396.46 C188.69,388.78 192.69,378.67 194.59,374.00 C198.64,363.98 198.74,363.00 195.68,363.00 C193.74,363.00 193.08,363.92 191.56,368.75 C190.57,371.91 188.91,376.17 187.88,378.21 C186.85,380.25 185.87,382.73 185.72,383.71 C185.27,386.61 179.77,399.00 178.93,399.00 C178.51,399.00 177.45,396.86 176.58,394.25 C175.71,391.64 172.61,383.65 169.68,376.50 C164.77,364.50 164.14,363.47 161.54,363.17 C159.51,362.93 158.88,363.21 159.28,364.17 C164.61,377.05 171.98,395.69 171.99,396.30 C172.00,396.75 172.91,399.11 174.02,401.55 C175.14,403.99 176.49,407.16 177.03,408.58 ZM 85.79 450.99 L 86.08 472.00 L 98.54 472.00 C110.33,472.00 111.00,471.89 111.00,470.00 C111.00,468.13 110.33,468.00 100.50,468.00 L 90.00 468.00 L 90.00 452.00 L 97.50 452.00 C104.33,452.00 105.00,451.82 105.00,450.00 C105.00,448.18 104.33,448.00 97.50,448.00 L 90.00 448.00 L 90.00 432.00 L 99.00 432.00 C107.33,432.00 108.00,431.85 108.00,430.00 C108.00,428.12 107.33,428.00 97.08,428.00 C90.77,428.00 86.03,428.42 85.83,428.99 C85.65,429.54 85.63,439.44 85.79,450.99 ZM 152.00 472.35 C155.23,473.41 164.24,472.93 166.93,471.54 C170.62,469.63 172.05,466.45 168.76,467.45 C167.52,467.83 163.32,468.39 159.43,468.69 C152.85,469.20 152.09,469.05 148.43,466.44 C141.16,461.25 139.50,458.40 139.50,451.04 C139.50,445.72 139.97,443.81 142.00,440.79 C143.38,438.74 145.28,436.80 146.24,436.47 C147.20,436.14 148.69,435.17 149.54,434.32 C151.88,431.98 162.85,431.35 166.69,433.34 C169.80,434.95 171.00,434.68 171.00,432.38 C171.00,430.54 164.58,429.01 156.79,429.01 C148.73,429.00 143.18,431.83 138.49,438.35 C135.73,442.18 135.50,443.15 135.50,451.04 C135.50,459.13 135.67,459.80 138.68,463.60 C141.44,467.07 146.88,470.65 152.00,472.35 ZM 284.00 452.00 C284.00,471.33 284.07,472.00 286.00,472.00 C287.93,472.00 288.00,471.33 288.00,452.00 L 288.00 432.00 L 296.00 432.00 C303.33,432.00 304.00,431.83 304.00,430.00 C304.00,428.08 303.33,428.00 286.50,428.00 C269.67,428.00 269.00,428.08 269.00,430.00 C269.00,431.82 269.67,432.00 276.50,432.00 L 284.00 432.00 ZM 364.96 467.36 C360.78,468.19 354.51,468.18 353.67,467.33 C353.30,466.97 353.00,462.92 353.00,458.33 L 353.00 450.00 L 357.75 450.05 C367.87,450.15 373.22,456.12 369.74,463.41 C368.60,465.81 367.29,466.89 364.96,467.36 ZM 259.45 383.58 C255.94,385.05 248.84,385.50 247.67,384.33 C247.30,383.97 247.00,379.92 247.00,375.33 L 247.00 367.00 L 250.49 367.00 C256.62,367.00 262.75,369.16 263.92,371.73 C266.30,376.95 264.61,381.43 259.45,383.58 ZM 320.67 410.33 C321.03,410.70 322.16,411.00 323.17,411.00 C324.89,411.00 325.00,409.61 325.00,387.00 L 325.00 363.00 L 320.00 363.00 L 320.00 386.33 C320.00,399.17 320.30,409.97 320.67,410.33 ZM 403.67 445.44 C402.57,446.94 400.71,447.49 395.62,447.81 L 389.00 448.23 L 389.00 431.72 L 394.02 432.32 C402.12,433.27 404.45,434.83 404.79,439.51 C404.97,441.82 404.49,444.32 403.67,445.44 ZM 423.00 428.00 L 423.00 472.00 L 428.00 472.00 L 428.00 428.00 ZM 145.70 410.37 C146.09,410.75 147.10,410.94 147.95,410.77 C149.29,410.51 149.54,407.23 149.77,386.74 L 150.04 363.00 L 145.00 363.00 L 145.00 386.33 C145.00,399.17 145.32,409.98 145.70,410.37 ZM 412.50 391.01 C413.10,392.88 412.67,393.00 405.57,393.00 C401.41,393.00 397.98,392.66 397.96,392.25 C397.88,390.85 404.50,371.06 405.05,371.03 C405.36,371.01 406.44,373.36 407.45,376.25 C408.47,379.14 409.65,381.96 410.09,382.53 C410.52,383.10 411.10,384.79 411.38,386.29 C411.65,387.79 412.16,389.91 412.50,391.01 ZM 362.35 445.06 C360.99,445.58 358.32,446.00 356.43,446.00 L 353.00 446.00 L 353.00 439.00 C353.00,432.18 353.06,432.00 355.53,432.00 C359.91,432.00 364.88,434.66 365.55,437.36 C366.46,440.96 365.20,443.97 362.35,445.06 ZM 201.19 455.47 C200.37,456.29 188.17,456.09 187.69,455.25 C186.96,453.99 193.38,438.00 194.61,438.00 C195.25,438.00 196.01,438.79 196.31,439.75 C196.60,440.71 197.94,444.53 199.28,448.22 C200.62,451.92 201.48,455.19 201.19,455.47 ZM 463.33 455.25 C462.80,456.13 450.61,456.27 449.74,455.41 C449.02,454.68 451.03,448.12 453.94,441.73 C456.14,436.91 457.95,436.28 458.06,440.31 C458.09,441.51 459.39,445.20 460.94,448.50 C462.50,451.80 463.57,454.84 463.33,455.25 ZM 328.28 454.50 C328.54,455.69 316.39,456.46 315.72,455.30 C315.18,454.36 321.17,438.00 322.06,438.00 C322.56,438.00 327.54,451.21 328.28,454.50 Z" fill="rgb(1,91,99)"/>
<path d="M 152.00 472.35 C146.88,470.65 141.44,467.07 138.68,463.60 C135.67,459.80 135.50,459.13 135.50,451.04 C135.50,443.15 135.73,442.18 138.49,438.35 C143.18,431.83 148.73,429.00 156.79,429.01 C164.58,429.01 171.00,430.54 171.00,432.38 C171.00,434.68 169.80,434.95 166.69,433.34 C162.85,431.35 151.88,431.98 149.54,434.32 C148.69,435.17 147.20,436.14 146.24,436.47 C145.28,436.80 143.38,438.74 142.00,440.79 C139.97,443.81 139.50,445.72 139.50,451.04 C139.50,458.40 141.16,461.25 148.43,466.44 C152.09,469.05 152.85,469.20 159.43,468.69 C163.32,468.39 167.52,467.83 168.76,467.45 C172.05,466.45 170.62,469.63 166.93,471.54 C164.24,472.93 155.23,473.41 152.00,472.35 ZM 248.34 461.82 C242.93,455.68 235.89,447.58 232.70,443.82 C229.51,440.07 226.47,437.00 225.95,437.00 C225.39,437.00 225.00,444.09 225.00,454.50 C225.00,471.33 224.92,472.00 223.00,472.00 C221.06,472.00 221.00,471.33 221.00,450.00 C221.00,428.92 221.08,428.00 222.93,428.00 C224.62,428.00 228.10,431.69 241.77,447.98 C245.64,452.59 253.75,461.00 254.33,461.00 C254.70,461.00 255.00,453.58 255.00,444.50 C255.00,428.67 255.08,428.00 257.00,428.00 C258.94,428.00 259.00,428.67 259.00,450.50 C259.00,462.88 258.81,473.00 258.59,473.00 C258.36,473.00 253.75,467.97 248.34,461.82 ZM 41.00 450.00 L 41.00 428.00 L 46.25 428.04 C62.46,428.15 73.21,434.76 75.93,446.30 C77.05,451.03 76.95,452.09 74.82,457.99 C72.72,463.86 71.99,464.79 67.26,467.61 C61.40,471.11 57.56,471.97 47.75,471.99 L 41.00 472.00 L 41.00 450.00 ZM 62.78 465.60 C69.14,462.36 71.48,458.24 71.41,450.41 C71.31,439.11 65.68,433.85 52.25,432.52 L 45.00 431.80 L 45.00 449.23 C45.00,458.82 45.30,466.97 45.67,467.33 C46.03,467.70 48.97,468.00 52.20,468.00 C56.42,468.00 59.39,467.33 62.78,465.60 ZM 85.79 450.99 C85.63,439.44 85.65,429.54 85.83,428.99 C86.03,428.42 90.77,428.00 97.08,428.00 C107.33,428.00 108.00,428.12 108.00,430.00 C108.00,431.85 107.33,432.00 99.00,432.00 L 90.00 432.00 L 90.00 440.00 L 90.00 448.00 L 97.50 448.00 C104.33,448.00 105.00,448.18 105.00,450.00 C105.00,451.82 104.33,452.00 97.50,452.00 L 90.00 452.00 L 90.00 460.00 L 90.00 468.00 L 100.50 468.00 C110.33,468.00 111.00,468.13 111.00,470.00 C111.00,471.89 110.33,472.00 98.54,472.00 L 86.08 472.00 L 85.79 450.99 ZM 177.00 471.56 C177.00,470.56 182.14,456.95 183.51,454.33 C184.32,452.77 184.99,450.89 184.99,450.15 C185.00,449.41 185.64,447.38 186.42,445.65 C190.05,437.59 191.85,432.96 192.48,430.10 C193.48,425.54 195.85,426.44 197.49,432.00 C198.18,434.32 200.41,439.85 208.35,458.94 C210.05,463.04 211.52,466.86 211.62,467.44 C211.72,468.03 212.12,469.29 212.51,470.25 C213.04,471.56 212.72,472.00 211.24,472.00 C209.80,472.00 208.55,470.39 206.58,466.00 L 203.89 460.00 L 194.44 460.00 C186.79,460.00 185.00,460.28 185.00,461.47 C185.00,464.54 180.60,472.00 178.80,472.00 C177.81,472.00 177.00,471.80 177.00,471.56 ZM 201.19 455.47 C201.48,455.19 200.62,451.92 199.28,448.22 C197.94,444.53 196.60,440.71 196.31,439.75 C196.01,438.79 195.25,438.00 194.61,438.00 C193.38,438.00 186.96,453.99 187.69,455.25 C188.17,456.09 200.37,456.29 201.19,455.47 ZM 284.00 452.00 L 284.00 432.00 L 276.50 432.00 C269.67,432.00 269.00,431.82 269.00,430.00 C269.00,428.08 269.67,428.00 286.50,428.00 C303.33,428.00 304.00,428.08 304.00,430.00 C304.00,431.83 303.33,432.00 296.00,432.00 L 288.00 432.00 L 288.00 452.00 C288.00,471.33 287.93,472.00 286.00,472.00 C284.07,472.00 284.00,471.33 284.00,452.00 ZM 304.52 469.75 C305.13,467.63 306.94,463.13 315.28,443.00 C317.21,438.33 319.38,432.81 320.10,430.75 C321.51,426.68 322.73,425.99 323.64,428.75 C323.96,429.71 324.84,431.92 325.61,433.65 C326.37,435.38 327.00,437.08 327.00,437.41 C327.00,437.75 327.85,439.93 328.90,442.26 C329.94,444.59 331.04,447.40 331.33,448.50 C331.63,449.60 333.42,454.33 335.31,459.00 C340.37,471.47 340.49,472.00 338.20,472.00 C336.81,472.00 335.52,470.33 333.58,466.00 L 330.89 460.00 L 321.44 460.00 C315.43,460.00 312.00,460.39 312.00,461.06 C312.00,461.65 311.04,464.35 309.88,467.06 C308.37,470.56 307.19,472.00 305.81,472.00 C304.27,472.00 304.00,471.54 304.52,469.75 ZM 328.28 454.50 C327.54,451.21 322.56,438.00 322.06,438.00 C321.17,438.00 315.18,454.36 315.72,455.30 C316.39,456.46 328.54,455.69 328.28,454.50 ZM 348.00 450.00 L 348.00 428.00 L 353.25 428.01 C364.05,428.02 369.72,431.49 370.68,438.67 C371.07,441.52 370.71,443.14 369.32,444.85 C367.44,447.18 367.44,447.18 371.72,451.46 C376.62,456.36 377.06,458.99 373.99,465.02 C371.12,470.64 367.83,472.00 357.05,472.00 L 348.00 472.00 L 348.00 450.00 ZM 364.96 467.36 C367.29,466.89 368.60,465.81 369.74,463.41 C373.22,456.12 367.87,450.15 357.75,450.05 L 353.00 450.00 L 353.00 458.33 C353.00,462.92 353.30,466.97 353.67,467.33 C354.51,468.18 360.78,468.19 364.96,467.36 ZM 362.35 445.06 C365.20,443.97 366.46,440.96 365.55,437.36 C364.88,434.66 359.91,432.00 355.53,432.00 C353.06,432.00 353.00,432.18 353.00,439.00 L 353.00 446.00 L 356.43 446.00 C358.32,446.00 360.99,445.58 362.35,445.06 ZM 385.00 449.85 L 385.00 427.70 L 393.75 428.31 C402.42,428.91 402.54,428.96 406.37,433.05 C409.86,436.77 410.19,437.57 409.70,441.19 C409.15,445.31 406.07,449.53 402.87,450.54 C401.30,451.04 401.73,452.05 406.20,458.31 C409.02,462.26 411.82,465.96 412.41,466.52 C413.01,467.08 414.36,468.54 415.40,469.77 L 417.31 472.00 L 414.40 471.99 C411.89,471.97 410.52,470.64 404.16,461.99 C397.03,452.29 396.70,452.00 392.91,452.00 L 389.00 452.00 L 389.00 462.00 C389.00,471.33 388.87,472.00 387.00,472.00 C385.06,472.00 385.00,471.33 385.00,449.85 ZM 403.67 445.44 C404.49,444.32 404.97,441.82 404.79,439.51 C404.45,434.83 402.12,433.27 394.02,432.32 L 389.00 431.72 L 389.00 439.98 L 389.00 448.23 L 395.62 447.81 C400.71,447.49 402.57,446.94 403.67,445.44 ZM 423.00 450.00 L 423.00 428.00 L 425.50 428.00 L 428.00 428.00 L 428.00 450.00 L 428.00 472.00 L 425.50 472.00 L 423.00 472.00 L 423.00 450.00 ZM 438.00 470.45 C438.00,469.60 438.75,467.46 439.66,465.70 C441.51,462.16 450.85,439.37 451.43,437.00 C452.35,433.28 455.30,427.00 456.14,427.00 C456.65,427.00 457.32,427.79 457.64,428.75 C457.95,429.71 459.74,434.26 461.60,438.85 C463.47,443.44 465.00,447.61 465.00,448.11 C465.00,448.61 465.88,450.93 466.95,453.26 C468.81,457.30 474.00,470.81 474.00,471.62 C474.00,471.83 473.16,472.00 472.13,472.00 C470.84,472.00 469.40,470.17 467.42,466.00 L 464.57 460.00 L 455.28 460.00 C449.39,460.00 446.00,460.39 446.00,461.06 C446.00,461.65 445.04,464.35 443.88,467.06 C442.41,470.47 441.17,472.00 439.88,472.00 C438.84,472.00 438.00,471.30 438.00,470.45 ZM 463.33 455.25 C463.57,454.84 462.50,451.80 460.94,448.50 C459.39,445.20 458.09,441.51 458.06,440.31 C457.95,436.28 456.14,436.91 453.94,441.73 C451.03,448.12 449.02,454.68 449.74,455.41 C450.61,456.27 462.80,456.13 463.33,455.25 ZM 49.84 409.18 C47.11,407.96 45.47,406.15 43.34,402.02 C40.61,396.71 40.49,395.88 40.17,379.75 L 39.83 363.00 L 42.30 363.00 L 44.78 363.00 L 45.15 380.78 C45.54,399.57 45.42,399.10 50.90,404.59 C55.86,409.58 69.58,406.88 72.02,400.43 C72.56,399.02 73.00,390.02 73.00,380.43 L 73.00 363.00 L 75.50 363.00 L 78.00 363.00 L 78.00 381.25 C77.99,401.99 77.47,403.79 70.06,408.46 C66.79,410.52 64.86,410.98 59.77,410.90 C56.32,410.85 51.85,410.07 49.84,409.18 ZM 90.70 410.37 C90.32,409.98 90.00,399.17 90.00,386.33 C90.00,363.93 90.08,363.00 91.93,363.00 C93.70,363.00 97.28,366.80 121.22,394.12 L 125.93 399.50 L 125.97 381.25 L 126.00 363.00 L 128.38 363.00 C130.01,363.00 130.96,363.71 131.37,365.25 C132.31,368.76 132.10,411.00 131.15,411.00 C130.68,411.00 127.57,407.96 124.25,404.25 C120.93,400.54 116.11,395.25 113.53,392.50 C110.95,389.75 106.12,384.01 102.80,379.75 C99.47,375.49 96.37,372.00 95.90,372.00 C95.43,372.00 94.92,380.66 94.77,391.24 C94.54,407.67 94.27,410.52 92.95,410.77 C92.10,410.94 91.09,410.75 90.70,410.37 ZM 145.70 410.37 C145.32,409.98 145.00,399.17 145.00,386.33 L 145.00 363.00 L 147.52 363.00 L 150.04 363.00 L 149.77 386.74 C149.54,407.23 149.29,410.51 147.95,410.77 C147.10,410.94 146.09,410.75 145.70,410.37 ZM 177.03 408.58 C176.49,407.16 175.14,403.99 174.02,401.55 C172.91,399.11 172.00,396.75 171.99,396.30 C171.98,395.69 164.61,377.05 159.28,364.17 C158.88,363.21 159.51,362.93 161.54,363.17 C164.14,363.47 164.77,364.50 169.68,376.50 C172.61,383.65 175.71,391.64 176.58,394.25 C177.45,396.86 178.51,399.00 178.93,399.00 C179.77,399.00 185.27,386.61 185.72,383.71 C185.87,382.73 186.85,380.25 187.88,378.21 C188.91,376.17 190.57,371.91 191.56,368.75 C193.08,363.92 193.74,363.00 195.68,363.00 C198.74,363.00 198.64,363.98 194.59,374.00 C192.69,378.67 188.69,388.78 185.68,396.46 C182.67,404.14 179.72,410.59 179.11,410.80 C178.51,411.00 177.57,410.00 177.03,408.58 ZM 206.69 410.36 C206.31,409.98 206.00,399.17 206.00,386.33 L 206.00 363.00 L 218.50 363.00 C230.26,363.00 231.00,363.12 231.00,364.96 C231.00,366.76 230.18,366.95 221.25,367.21 L 211.50 367.50 L 211.21 375.41 C210.99,381.07 211.28,383.56 212.21,384.15 C212.92,384.60 216.80,384.98 220.82,384.98 C227.25,385.00 228.11,385.21 227.81,386.75 C227.53,388.20 226.18,388.55 219.82,388.79 L 212.16 389.08 L 211.59 392.79 C211.28,394.83 211.19,398.52 211.41,401.00 L 211.79 405.50 L 222.96 405.78 C233.85,406.06 234.12,406.12 233.82,408.28 C233.51,410.43 233.07,410.51 220.44,410.78 C213.26,410.93 207.08,410.74 206.69,410.36 ZM 242.70 410.37 C242.32,409.98 242.00,399.17 242.00,386.33 L 242.00 363.00 L 248.45 363.00 C258.86,363.00 264.63,364.64 267.51,368.43 C268.99,370.37 270.00,373.02 270.00,374.96 C270.00,379.13 266.46,385.47 263.33,386.89 L 260.92 387.99 L 266.62 395.75 C269.76,400.01 273.43,404.96 274.78,406.74 C276.90,409.55 277.01,410.06 275.61,410.60 C272.79,411.68 271.48,410.42 264.11,399.59 L 256.90 389.00 L 251.98 389.00 L 247.07 389.00 L 246.78 399.74 C246.55,408.49 246.21,410.53 244.95,410.77 C244.10,410.94 243.09,410.75 242.70,410.37 ZM 259.45 383.58 C264.61,381.43 266.30,376.95 263.92,371.73 C262.75,369.16 256.62,367.00 250.49,367.00 L 247.00 367.00 L 247.00 375.33 C247.00,379.92 247.30,383.97 247.67,384.33 C248.84,385.50 255.94,385.05 259.45,383.58 ZM 283.25 409.33 C281.99,408.44 281.00,406.71 281.00,405.38 C281.00,402.64 281.75,402.44 284.56,404.41 C289.92,408.16 301.45,406.77 303.96,402.07 C306.72,396.92 303.93,392.79 294.47,387.99 C286.24,383.81 282.73,379.56 282.73,373.77 C282.73,371.47 283.24,369.42 283.86,369.21 C284.49,369.00 285.00,368.25 285.00,367.53 C285.00,365.01 289.76,363.00 295.71,363.01 C303.90,363.03 306.18,363.80 305.78,366.38 C305.58,367.68 304.88,368.35 303.98,368.10 C296.48,366.07 290.55,367.08 288.65,370.69 C286.63,374.55 288.39,378.03 294.13,381.53 C296.81,383.16 301.03,385.75 303.53,387.27 C308.32,390.20 310.01,393.09 309.99,398.32 C309.96,402.71 308.08,406.03 304.09,408.72 C301.28,410.61 299.41,410.99 293.10,410.95 C287.89,410.91 284.79,410.40 283.25,409.33 ZM 320.67 410.33 C320.30,409.97 320.00,399.17 320.00,386.33 L 320.00 363.00 L 322.50 363.00 L 325.00 363.00 L 325.00 387.00 C325.00,409.61 324.89,411.00 323.17,411.00 C322.16,411.00 321.03,410.70 320.67,410.33 ZM 338.75 410.45 C337.86,409.52 337.73,366.88 338.61,364.58 C339.53,362.17 350.11,362.57 363.67,365.53 C366.56,366.15 371.63,370.50 375.15,375.36 C377.41,378.49 378.00,380.36 377.98,384.40 C377.92,395.46 374.01,402.56 365.22,407.54 C361.18,409.82 358.98,410.28 350.00,410.72 C344.23,411.00 339.16,410.88 338.75,410.45 ZM 363.78 402.64 C369.75,398.87 371.38,395.65 371.67,387.02 C371.93,379.17 371.01,376.57 366.58,372.75 C362.64,369.36 359.48,368.25 351.75,367.54 L 344.00 366.83 L 344.00 386.56 L 344.00 406.30 L 351.97 405.68 C357.95,405.22 360.89,404.46 363.78,402.64 ZM 385.65 410.24 C385.39,409.83 386.06,407.69 387.13,405.49 C388.20,403.30 389.72,399.70 390.50,397.50 C394.60,385.96 405.05,362.00 405.99,362.00 C406.34,362.00 408.78,367.51 411.42,374.25 C414.05,380.99 418.19,391.52 420.60,397.66 C423.02,403.80 425.00,409.35 425.00,409.98 C425.00,410.62 423.99,411.00 422.75,410.82 C420.96,410.57 420.01,409.11 418.13,403.75 L 415.76 397.00 L 405.57 397.00 L 395.37 397.00 L 393.29 402.25 C392.15,405.14 390.95,408.29 390.64,409.25 C390.07,410.99 386.54,411.69 385.65,410.24 ZM 412.50 391.01 C412.16,389.91 411.65,387.79 411.38,386.29 C411.10,384.79 410.52,383.10 410.09,382.53 C409.65,381.96 408.47,379.14 407.45,376.25 C406.44,373.36 405.36,371.01 405.05,371.03 C404.50,371.06 397.88,390.85 397.96,392.25 C397.98,392.66 401.41,393.00 405.57,393.00 C412.67,393.00 413.10,392.88 412.50,391.01 ZM 434.75 410.43 C434.34,410.01 434.00,399.17 434.00,386.33 L 434.00 363.00 L 440.25 363.04 C452.10,363.10 463.85,366.88 468.63,372.15 C473.60,377.64 474.10,393.03 469.55,400.05 C468.11,402.26 464.85,404.87 460.87,407.01 C455.17,410.06 453.51,410.46 445.00,410.81 C439.77,411.02 435.16,410.85 434.75,410.43 ZM 458.73 403.14 C464.75,400.07 467.50,395.00 467.50,387.00 C467.50,374.81 461.20,368.76 447.21,367.52 L 439.00 366.79 L 439.00 386.54 L 439.00 406.29 L 446.83 405.75 C451.89,405.40 456.11,404.48 458.73,403.14 ZM 388.50 286.51 C364.53,283.61 339.16,274.10 323.50,262.15 C304.18,247.41 287.75,224.91 280.66,203.50 C277.40,193.64 274.43,173.06 274.65,161.84 C275.20,134.31 284.16,105.77 297.23,89.94 C299.30,87.43 301.00,84.94 301.00,84.40 C301.00,83.30 308.86,75.62 320.50,65.36 C327.73,58.99 337.06,53.39 350.00,47.66 C358.20,44.04 376.23,39.13 385.50,38.00 C396.68,36.64 425.68,37.15 435.71,38.89 C443.92,40.31 461.30,45.25 467.25,47.85 L 472.00 49.93 L 472.00 84.96 C472.00,104.23 471.80,120.00 471.55,120.00 C471.30,120.00 466.91,118.01 461.80,115.57 C456.68,113.14 447.78,109.93 442.00,108.44 C432.28,105.94 430.47,105.78 417.50,106.29 C405.68,106.75 402.09,107.29 394.46,109.78 C383.26,113.41 379.02,116.05 371.77,123.88 C361.01,135.50 357.34,143.88 356.95,157.75 C356.61,170.08 357.65,177.32 360.75,184.13 C366.20,196.10 377.23,207.48 388.00,212.24 C399.79,217.45 407.01,218.97 420.14,218.99 C439.65,219.01 456.18,215.10 466.44,208.04 C468.87,206.37 471.12,205.00 471.43,205.00 C471.74,205.00 472.00,220.51 472.00,239.47 L 472.00 273.95 L 469.05 275.47 C461.62,279.31 445.48,284.34 435.00,286.07 C421.88,288.23 404.12,288.40 388.50,286.51 ZM 131.00 286.07 C122.30,285.19 111.94,283.16 110.50,282.04 C109.95,281.61 107.03,280.46 104.00,279.48 C95.94,276.87 86.15,271.91 79.94,267.30 C72.83,262.02 62.41,251.60 59.15,246.52 C57.73,244.31 55.59,241.29 54.40,239.82 C52.09,236.95 46.55,224.34 45.45,219.46 C41.28,200.89 41.12,197.12 41.06,117.25 L 41.00 40.00 L 80.96 40.00 L 120.93 40.00 L 121.25 116.75 C121.51,179.19 121.83,194.20 122.96,197.27 C123.72,199.35 126.71,203.65 129.59,206.84 C134.87,212.67 137.80,214.11 149.36,216.50 C152.72,217.20 161.96,215.56 167.13,213.36 C171.92,211.31 180.52,200.05 181.92,193.99 C182.58,191.11 182.96,162.64 182.98,114.75 L 183.00 40.00 L 222.00 40.00 L 261.00 40.00 L 261.00 118.07 C261.00,212.40 260.69,216.06 251.07,234.75 C246.62,243.40 243.25,247.98 235.01,256.63 C226.86,265.17 221.63,269.14 212.26,273.87 C205.45,277.31 191.31,282.47 183.00,284.57 C176.52,286.20 142.18,287.19 131.00,286.07 Z" fill="rgb(252,254,254)"/>
</g>
</svg>