<svg xmlns="http://www.w3.org/2000/svg" width="800" height="500" viewBox="0 0 800 500">
<g>
<path d="M 98.46 307.47 C81.93,311.77 63.53,306.72 51.49,294.57 C45.28,288.30 40.82,280.53 39.06,272.89 C38.48,270.35 38.04,252.54 38.02,230.75 L 38.00 193.00 L 53.75 193.00 L 69.50 193.00 L 69.15 227.29 C68.91,251.73 69.15,262.85 70.00,266.01 C71.51,271.62 76.35,276.28 82.41,277.98 C86.41,279.10 87.60,279.04 91.48,277.56 C96.70,275.57 100.50,271.45 101.96,266.22 C102.57,263.99 102.99,248.57 102.99,227.75 L 103.00 193.00 L 134.00 193.00 L 133.99 230.75 C133.98,270.24 133.72,273.05 129.31,283.03 C124.62,293.63 111.41,304.10 98.46,307.47 ZM 225.75 305.85 C219.18,307.88 202.61,309.30 196.50,308.36 C185.26,306.64 172.82,300.51 164.03,292.37 C152.65,281.83 147.05,269.29 146.24,252.49 C145.37,234.52 150.40,221.39 162.91,208.97 C181.92,190.10 210.39,185.64 234.99,197.68 C242.72,201.46 256.02,213.09 255.98,216.04 C255.97,216.84 253.16,219.21 249.73,221.30 C246.30,223.39 240.64,226.88 237.15,229.05 C233.66,231.22 230.57,233.00 230.30,233.00 C230.02,233.00 227.64,231.06 225.00,228.69 C219.39,223.64 214.68,222.00 205.88,222.01 C194.96,222.03 185.72,227.85 180.81,237.81 C177.98,243.55 177.70,255.31 180.25,261.19 C182.68,266.81 189.44,273.50 195.27,276.09 C205.43,280.58 218.56,278.17 226.06,270.43 C227.89,268.55 229.76,267.00 230.21,267.00 C232.12,267.00 256.00,282.57 256.00,283.82 C256.00,286.06 243.92,297.36 237.94,300.70 C234.88,302.40 229.40,304.72 225.75,305.85 ZM 674.04 300.70 C668.50,303.62 665.42,303.60 659.74,300.58 C655.37,298.25 655.17,298.23 654.69,300.08 C654.33,301.45 653.30,302.00 651.09,302.00 L 648.00 302.00 L 648.00 255.00 L 655.00 255.00 L 655.00 272.16 L 658.37 270.08 C662.91,267.28 671.06,267.26 675.56,270.04 C685.99,276.48 685.08,294.86 674.04,300.70 ZM 373.50 301.14 C368.45,303.43 365.53,303.43 360.50,301.12 C355.74,298.93 353.61,296.70 351.54,291.75 C349.39,286.60 349.65,281.17 352.27,276.59 C355.35,271.21 358.97,268.81 364.87,268.24 C371.24,267.63 374.08,268.35 377.92,271.59 L 381.00 274.18 L 381.00 264.59 C381.00,255.67 381.14,255.00 383.00,255.00 C384.94,255.00 385.00,255.67 385.00,278.57 C385.00,300.45 384.87,302.12 383.26,301.81 C382.24,301.62 381.30,300.27 381.01,298.58 C380.53,295.85 380.41,295.79 379.00,297.50 C378.17,298.50 375.70,300.14 373.50,301.14 ZM 751.17 300.56 C743.55,304.37 735.73,302.44 730.38,295.44 C727.86,292.13 727.50,290.81 727.50,284.90 C727.50,277.36 729.08,274.27 734.99,270.25 C739.32,267.31 747.15,267.18 751.75,269.99 C754.40,271.61 755.00,271.70 755.00,270.49 C755.00,269.42 756.13,269.00 759.02,269.00 L 763.05 269.00 L 762.50 301.50 L 759.55 301.84 C757.70,302.05 756.17,301.58 755.44,300.59 C754.39,299.16 754.00,299.15 751.17,300.56 ZM 707.65 242.85 C698.98,248.06 687.26,244.40 683.37,235.28 C681.58,231.08 681.62,223.63 683.45,220.10 C684.25,218.56 686.51,215.88 688.48,214.15 C691.75,211.28 692.68,211.00 698.81,211.00 C704.85,211.00 705.93,211.32 709.27,214.07 L 713.00 217.15 L 713.00 207.57 C713.00,198.64 713.13,198.00 715.02,198.00 C716.99,198.00 717.03,198.51 716.77,221.25 C716.54,241.13 716.28,244.50 715.00,244.50 C714.06,244.50 713.28,243.19 712.92,241.00 C712.47,238.30 712.17,237.90 711.57,239.23 C711.15,240.18 709.38,241.81 707.65,242.85 ZM 620.26 243.33 C611.57,247.70 601.25,244.28 597.07,235.65 C594.40,230.12 594.45,225.51 597.25,219.97 C600.51,213.51 604.81,211.00 612.61,211.00 C618.25,211.00 619.31,211.33 622.47,214.10 L 626.00 217.21 L 626.00 207.60 C626.00,198.67 626.14,198.00 628.00,198.00 C629.94,198.00 630.00,198.67 630.00,221.57 C630.00,243.49 629.88,245.12 628.25,244.80 C626.99,244.55 626.53,243.54 626.59,241.22 C626.70,237.53 626.01,237.16 624.25,239.97 C623.58,241.05 621.78,242.56 620.26,243.33 ZM 626.50 301.00 C621.44,303.58 618.46,303.52 612.97,300.75 C606.62,297.54 604.00,293.16 604.00,285.75 C604.00,274.59 608.92,268.92 619.27,268.17 C624.14,267.82 625.67,268.12 628.04,269.87 C631.46,272.40 632.00,272.48 632.00,270.50 C632.00,269.45 633.06,269.00 635.52,269.00 L 639.05 269.00 L 638.50 301.50 L 635.25 301.81 C632.84,302.05 632.00,301.72 632.00,300.56 C632.00,298.53 631.23,298.59 626.50,301.00 ZM 522.05 299.97 C516.27,304.08 507.98,303.15 502.23,297.74 C498.88,294.60 496.70,286.28 497.87,281.10 C499.12,275.50 503.20,270.42 507.61,268.97 C512.20,267.45 520.46,268.20 522.84,270.35 C525.10,272.40 526.00,272.44 526.00,270.50 C526.00,269.45 527.06,269.00 529.52,269.00 L 533.05 269.00 L 532.50 301.50 L 529.00 301.50 C526.22,301.50 525.56,301.14 525.79,299.75 C526.17,297.50 525.45,297.55 522.05,299.97 ZM 662.87 243.57 C653.71,248.30 641.41,242.20 639.05,231.74 C637.34,224.12 640.53,216.36 646.92,212.62 C652.80,209.18 665.92,211.03 667.66,215.55 C668.62,218.05 670.00,217.13 670.00,214.00 C670.00,211.65 670.44,211.00 672.02,211.00 C673.99,211.00 674.04,211.51 673.77,227.75 C673.54,241.85 673.26,244.50 672.00,244.50 C671.11,244.50 670.37,243.39 670.18,241.75 C669.83,238.64 668.84,238.28 666.95,240.57 C666.23,241.43 664.40,242.78 662.87,243.57 ZM 481.59 301.53 C475.61,303.31 472.89,303.29 467.00,301.46 C456.80,298.30 450.60,289.80 450.54,278.92 C450.51,273.31 450.94,271.63 453.53,267.45 C461.36,254.78 479.69,252.04 490.32,261.96 L 494.41 265.78 L 490.99 267.86 C487.66,269.89 487.51,269.89 485.53,268.10 C482.06,264.95 479.33,264.00 473.70,264.00 C466.13,264.00 461.05,267.89 458.98,275.25 C455.05,289.20 472.81,300.76 483.86,291.46 C487.32,288.56 488.24,288.46 491.59,290.65 L 494.11 292.30 L 490.32 296.18 C487.88,298.68 484.78,300.58 481.59,301.53 ZM 513.06 242.84 C506.02,246.78 498.70,246.26 492.25,241.36 C487.77,237.96 485.73,233.57 485.79,227.41 C485.88,216.86 492.03,211.00 502.98,211.01 C507.75,211.01 510.29,211.54 512.44,212.95 C516.53,215.64 519.99,221.74 519.99,226.25 L 520.00 230.00 L 505.00 230.00 C494.79,230.00 490.00,230.35 490.00,231.10 C490.00,235.38 498.35,242.00 503.75,242.00 C506.83,242.00 511.18,240.17 513.70,237.81 C514.95,236.63 516.57,236.01 517.47,236.35 C519.71,237.21 517.62,240.28 513.06,242.84 ZM 421.05 299.97 C415.47,302.82 409.31,303.39 405.00,301.46 C386.41,293.14 391.10,268.00 411.24,268.00 C420.23,268.00 427.24,274.16 427.41,282.20 L 427.50 286.50 L 397.00 287.50 L 398.75 290.93 C401.11,295.56 404.88,298.12 410.22,298.72 C414.81,299.24 419.15,297.70 422.47,294.39 C423.65,293.21 424.44,293.04 425.20,293.80 C426.91,295.51 425.40,297.75 421.05,299.97 ZM 549.00 290.16 L 548.50 301.50 L 545.33 301.81 L 545.15 301.83 C544.14,301.92 543.40,302.00 542.87,301.70 C541.46,300.91 541.52,297.46 541.78,284.75 L 541.80 283.86 L 542.10 269.00 L 545.55 269.00 C548.09,269.00 549.00,269.43 549.00,270.65 C549.00,272.13 549.23,272.11 551.06,270.45 C552.47,269.17 555.11,268.46 559.54,268.18 C565.79,267.78 566.07,267.87 569.48,271.28 C573.29,275.09 573.25,274.82 573.31,295.00 L 573.33 301.50 L 569.67 301.81 L 566.00 302.12 L 566.00 291.01 C566.00,280.56 565.86,279.77 563.55,277.45 C560.52,274.43 555.23,274.19 551.86,276.91 C549.70,278.66 549.46,279.75 549.00,290.16 ZM 695.46 240.97 C707.00,244.47 716.66,232.52 711.35,221.33 C709.33,217.07 706.77,215.30 701.38,214.44 C696.17,213.61 690.55,216.09 687.83,220.42 C684.90,225.06 685.73,233.07 689.55,237.05 C691.13,238.70 693.79,240.47 695.46,240.97 ZM 651.45 240.59 C655.38,242.30 657.33,242.31 661.28,240.64 C665.34,238.92 667.42,236.51 668.95,231.75 C670.52,226.87 669.53,222.67 665.83,218.46 C660.61,212.52 650.85,212.82 645.57,219.09 C641.84,223.53 641.90,231.54 645.70,236.06 C647.19,237.82 649.77,239.86 651.45,240.59 ZM 362.02 297.25 C366.25,299.37 368.99,299.45 373.51,297.56 C382.30,293.89 383.70,279.11 375.78,273.56 C374.39,272.58 371.39,272.00 367.76,272.00 C362.60,272.00 361.58,272.36 358.36,275.31 C355.36,278.06 354.66,279.46 354.28,283.56 C353.73,289.52 356.54,294.49 362.02,297.25 ZM 607.33 240.06 C612.44,242.38 612.96,242.40 617.96,240.40 C628.56,236.16 628.76,219.72 618.28,215.34 C608.87,211.41 598.32,218.87 599.32,228.74 C599.90,234.39 602.29,237.77 607.33,240.06 ZM 305.76 249.74 C305.53,302.74 305.33,309.51 303.95,309.77 C303.10,309.93 302.09,309.75 301.70,309.37 C301.32,308.98 301.00,281.97 301.00,249.33 L 301.00 190.00 L 306.02 190.00 ZM 598.07 301.96 C594.20,304.03 588.90,302.79 585.50,299.02 C583.81,297.14 583.45,295.09 583.16,285.90 C582.83,275.14 582.79,275.00 580.41,275.00 C578.40,275.00 578.00,274.50 578.00,272.00 C578.00,269.47 578.39,269.00 580.50,269.00 C582.80,269.00 583.00,268.63 583.00,264.50 L 583.00 260.00 L 586.94 260.00 C590.87,260.00 590.89,260.02 591.19,264.25 C591.50,268.48 591.52,268.50 595.75,268.81 C599.72,269.09 600.00,269.31 600.00,272.06 C600.00,274.88 599.81,275.00 595.50,275.00 L 591.00 275.00 L 591.00 284.46 C591.00,292.87 591.22,294.05 592.98,294.99 C594.07,295.57 596.09,295.76 597.48,295.42 C599.76,294.84 600.00,295.07 600.00,297.86 C600.00,299.87 599.33,301.29 598.07,301.96 ZM 379.77 242.43 C371.29,247.94 357.81,244.43 353.62,235.62 C352.33,232.90 352.00,228.88 352.00,216.10 C352.00,200.67 352.08,200.00 354.00,200.00 C355.91,200.00 356.00,200.67 356.00,215.55 C356.00,233.03 356.65,235.38 362.44,238.97 C369.22,243.15 376.26,241.54 381.44,234.62 C383.28,232.15 383.53,230.17 383.82,215.93 C384.12,200.97 384.25,200.00 386.07,200.00 C387.89,200.00 388.00,200.85 388.00,215.38 C388.00,233.84 386.78,237.87 379.77,242.43 ZM 402.00 232.26 C401.57,242.87 401.27,244.52 399.75,244.81 C398.14,245.12 398.00,243.79 398.00,228.00 C398.00,212.21 398.14,210.88 399.75,211.19 C400.71,211.37 401.65,212.57 401.83,213.86 L 402.16 216.19 L 404.49 214.01 C409.53,209.27 420.21,209.41 424.78,214.26 C427.72,217.40 429.14,224.92 428.79,235.55 C428.54,243.12 428.23,244.53 426.75,244.81 C425.17,245.11 425.00,244.09 425.00,234.32 C425.00,222.32 423.51,217.58 419.00,215.22 C415.14,213.21 408.25,214.29 405.13,217.41 C402.65,219.89 402.47,220.71 402.00,232.26 ZM 662.02 294.88 C665.43,296.24 665.73,296.22 669.68,294.35 C678.98,289.93 675.60,275.00 665.30,275.00 C660.65,275.00 657.70,276.89 656.02,280.94 C653.64,286.70 656.15,292.54 662.02,294.88 ZM 696.04 291.50 L 695.50 301.50 L 689.00 302.13 L 689.00 269.00 L 692.50 269.00 C694.94,269.00 696.00,269.45 696.00,270.50 C696.00,272.49 696.68,272.39 699.73,270.00 C701.13,268.90 703.59,268.00 705.20,268.00 C707.96,268.00 708.10,268.20 707.81,271.75 C707.55,274.90 707.10,275.55 705.00,275.79 C701.56,276.19 698.26,277.96 697.35,279.89 C696.93,280.78 696.34,286.00 696.04,291.50 ZM 618.21 294.86 C622.53,296.09 624.86,295.42 628.48,291.90 C630.92,289.53 631.45,288.22 631.36,284.80 C631.27,281.44 630.62,280.05 628.11,277.80 C621.55,271.95 610.99,276.48 611.00,285.15 C611.01,289.01 614.59,293.83 618.21,294.86 ZM 511.38 294.59 C518.04,297.53 525.00,292.41 525.00,284.57 C525.00,280.89 524.50,279.76 521.92,277.59 C515.00,271.77 505.00,276.58 505.00,285.73 C505.00,289.41 507.48,292.86 511.38,294.59 ZM 741.38 294.55 C748.66,297.71 756.59,290.46 754.58,282.48 C751.82,271.46 735.00,273.08 735.00,284.37 C735.00,289.34 737.11,292.71 741.38,294.55 ZM 570.73 243.15 C564.71,246.39 554.40,245.31 550.54,241.04 C547.85,238.07 550.57,237.48 555.47,239.99 C560.53,242.57 565.04,242.55 568.37,239.93 C571.16,237.73 571.85,233.92 569.75,232.26 C569.06,231.72 565.27,230.31 561.32,229.13 C553.45,226.78 550.00,223.70 550.00,219.04 C550.00,213.77 557.43,209.58 564.77,210.71 C569.09,211.37 574.00,213.64 574.00,214.97 C574.00,216.81 571.99,217.04 569.08,215.54 C561.18,211.46 550.59,216.58 555.57,222.08 C556.53,223.14 560.42,224.94 564.22,226.07 C572.22,228.45 575.00,230.77 575.00,235.07 C575.00,238.93 573.58,241.62 570.73,243.15 ZM 474.96 229.25 C466.70,247.24 465.35,248.36 461.82,240.25 C460.68,237.64 457.33,230.19 454.37,223.70 C451.42,217.20 449.00,211.66 449.00,211.38 C449.00,211.09 449.97,211.00 451.17,211.18 C452.89,211.44 454.56,214.27 459.42,225.23 C462.76,232.78 465.73,238.96 466.00,238.95 C466.46,238.93 467.91,235.83 475.89,217.75 C478.25,212.41 479.33,211.00 481.04,211.00 C482.39,211.00 483.02,211.48 482.70,212.25 C482.42,212.94 478.94,220.59 474.96,229.25 ZM 397.60 283.17 C398.33,284.34 422.75,284.21 423.48,283.03 C424.38,281.57 420.29,274.23 417.85,272.92 C414.37,271.06 406.16,271.49 403.14,273.71 C400.29,275.80 396.77,281.81 397.60,283.17 ZM 490.00 223.99 C490.00,225.90 490.64,226.00 503.00,226.00 C517.43,226.00 517.71,225.84 513.72,219.91 C510.53,215.18 507.48,213.81 501.50,214.42 C497.41,214.84 495.91,215.57 493.25,218.45 C491.46,220.39 490.00,222.88 490.00,223.99 ZM 720.00 269.00 L 720.00 302.00 L 713.00 302.00 L 713.00 269.00 ZM 532.00 233.42 C531.54,243.47 530.67,246.34 528.69,244.35 C528.31,243.98 528.00,236.32 528.00,227.33 C528.00,211.67 528.08,211.00 530.00,211.00 C531.57,211.00 532.00,211.67 532.00,214.10 L 532.00 217.21 L 535.53 214.10 C539.64,210.50 546.42,209.58 545.82,212.71 C545.63,213.68 544.19,214.69 542.49,215.04 C534.17,216.75 532.64,219.43 532.00,233.42 ZM 442.00 228.00 C442.00,241.50 441.73,245.00 440.67,245.00 C439.93,245.00 439.03,244.70 438.67,244.33 C438.30,243.97 438.00,236.32 438.00,227.33 C438.00,211.67 438.08,211.00 440.00,211.00 C441.92,211.00 442.00,211.67 442.00,228.00 ZM 586.77 227.67 C586.52,243.29 585.91,246.58 583.69,244.35 C583.31,243.98 583.00,236.32 583.00,227.33 C583.00,211.60 583.07,211.00 585.02,211.00 C586.99,211.00 587.04,211.51 586.77,227.67 ZM 720.30 260.90 C718.16,264.32 712.00,262.41 712.00,258.34 C712.00,253.49 719.47,252.03 720.63,256.65 C720.99,258.11 720.84,260.03 720.30,260.90 ZM 588.00 200.35 C588.00,201.12 587.37,202.28 586.61,202.91 C585.53,203.81 584.83,203.69 583.53,202.39 C582.05,200.90 582.03,200.55 583.35,199.22 C585.05,197.52 588.00,198.23 588.00,200.35 ZM 442.81 200.74 C442.63,201.69 441.69,202.63 440.74,202.81 C438.67,203.21 437.28,200.32 438.80,198.80 C440.32,197.28 443.21,198.67 442.81,200.74 Z" fill="rgb(79,132,140)"/>
<path d="M 225.75 305.85 C227.76,305.23 230.33,304.25 232.74,303.20 C229.34,304.73 225.64,306.00 221.50,307.09 C210.80,309.93 210.68,309.94 201.50,308.88 C200.81,308.80 200.13,308.71 199.45,308.62 C206.85,308.91 220.06,307.61 225.75,305.85 ZM 182.21 304.10 C175.50,301.33 169.54,297.47 164.03,292.37 C169.17,297.12 175.55,301.19 182.21,304.10 ZM 242.62 297.48 C245.05,295.60 247.68,293.32 249.96,291.14 C249.71,291.39 249.46,291.63 249.21,291.88 C247.07,293.97 244.89,295.83 242.62,297.48 ZM 243.41 274.67 C237.33,270.72 231.15,267.00 230.21,267.00 C231.16,267.00 237.34,270.72 243.41,274.67 ZM 255.99 283.96 C255.99,283.92 256.00,283.88 256.00,283.85 C256.00,283.85 256.00,283.85 256.00,283.86 C256.00,283.89 256.00,283.92 255.99,283.96 Z" fill="rgb(188,210,215)"/>
<path d="M 0.00 250.00 L 0.00 0.00 L 400.00 0.00 L 800.00 0.00 L 800.00 250.00 L 800.00 500.00 L 400.00 500.00 L 0.00 500.00 L 0.00 250.00 ZM 221.50 307.09 C233.19,304.00 241.40,299.49 249.21,291.88 C252.94,288.24 256.00,284.63 256.00,283.86 C256.00,282.59 232.16,267.00 230.21,267.00 C229.76,267.00 227.89,268.55 226.06,270.43 C218.56,278.17 205.43,280.58 195.27,276.09 C189.44,273.50 182.68,266.81 180.25,261.19 C177.70,255.31 177.98,243.55 180.81,237.81 C185.72,227.85 194.96,222.03 205.88,222.01 C214.68,222.00 219.39,223.64 225.00,228.69 C227.64,231.06 230.02,233.00 230.30,233.00 C230.57,233.00 233.66,231.22 237.15,229.05 C240.64,226.88 246.30,223.39 249.73,221.30 C253.16,219.21 255.97,216.84 255.98,216.04 C256.02,213.09 242.72,201.46 234.99,197.68 C210.39,185.64 181.92,190.10 162.91,208.97 C150.40,221.39 145.37,234.52 146.24,252.49 C147.05,269.29 152.65,281.83 164.03,292.37 C174.31,301.88 186.16,307.11 201.50,308.88 C210.68,309.94 210.80,309.93 221.50,307.09 ZM 305.76 249.74 L 306.02 190.00 L 303.51 190.00 L 301.00 190.00 L 301.00 249.33 C301.00,281.97 301.32,308.98 301.70,309.37 C302.09,309.75 303.10,309.93 303.95,309.77 C305.33,309.51 305.53,302.74 305.76,249.74 ZM 98.46 307.47 C111.41,304.10 124.62,293.63 129.31,283.03 C133.72,273.05 133.98,270.24 133.99,230.75 L 134.00 193.00 L 118.50 193.00 L 103.00 193.00 L 102.99 227.75 C102.99,248.57 102.57,263.99 101.96,266.22 C100.50,271.45 96.70,275.57 91.48,277.56 C87.60,279.04 86.41,279.10 82.41,277.98 C76.35,276.28 71.51,271.62 70.00,266.01 C69.15,262.85 68.91,251.73 69.15,227.29 L 69.50 193.00 L 53.75 193.00 L 38.00 193.00 L 38.02 230.75 C38.04,252.54 38.48,270.35 39.06,272.89 C40.82,280.53 45.28,288.30 51.49,294.57 C63.53,306.72 81.93,311.77 98.46,307.47 ZM 373.50 301.14 C375.70,300.14 378.17,298.50 379.00,297.50 C380.41,295.79 380.53,295.85 381.01,298.58 C381.30,300.27 382.24,301.62 383.26,301.81 C384.87,302.12 385.00,300.45 385.00,278.57 C385.00,255.67 384.94,255.00 383.00,255.00 C381.14,255.00 381.00,255.67 381.00,264.59 L 381.00 274.18 L 377.92 271.59 C374.08,268.35 371.24,267.63 364.87,268.24 C358.97,268.81 355.35,271.21 352.27,276.59 C349.65,281.17 349.39,286.60 351.54,291.75 C353.61,296.70 355.74,298.93 360.50,301.12 C365.53,303.43 368.45,303.43 373.50,301.14 ZM 421.05 299.97 C425.40,297.75 426.91,295.51 425.20,293.80 C424.44,293.04 423.65,293.21 422.47,294.39 C419.15,297.70 414.81,299.24 410.22,298.72 C404.88,298.12 401.11,295.56 398.75,290.93 L 397.00 287.50 L 412.25 287.00 L 427.50 286.50 L 427.41 282.20 C427.24,274.16 420.23,268.00 411.24,268.00 C391.10,268.00 386.41,293.14 405.00,301.46 C409.31,303.39 415.47,302.82 421.05,299.97 ZM 481.59 301.53 C484.78,300.58 487.88,298.68 490.32,296.18 L 494.11 292.30 L 491.59 290.65 C488.24,288.46 487.32,288.56 483.86,291.46 C472.81,300.76 455.05,289.20 458.98,275.25 C461.05,267.89 466.13,264.00 473.70,264.00 C479.33,264.00 482.06,264.95 485.53,268.10 C487.51,269.89 487.66,269.89 490.99,267.86 L 494.41 265.78 L 490.32 261.96 C479.69,252.04 461.36,254.78 453.53,267.45 C450.94,271.63 450.51,273.31 450.54,278.92 C450.60,289.80 456.80,298.30 467.00,301.46 C472.89,303.29 475.61,303.31 481.59,301.53 ZM 522.05 299.97 C525.45,297.55 526.17,297.50 525.79,299.75 C525.56,301.14 526.22,301.50 529.00,301.50 L 532.50 301.50 L 532.77 285.25 L 533.05 269.00 L 529.52 269.00 C527.06,269.00 526.00,269.45 526.00,270.50 C526.00,272.44 525.10,272.40 522.84,270.35 C520.46,268.20 512.20,267.45 507.61,268.97 C503.20,270.42 499.12,275.50 497.87,281.10 C496.70,286.28 498.88,294.60 502.23,297.74 C507.98,303.15 516.27,304.08 522.05,299.97 ZM 598.07 301.96 C599.33,301.29 600.00,299.87 600.00,297.86 C600.00,295.07 599.76,294.84 597.48,295.42 C596.09,295.76 594.07,295.57 592.98,294.99 C591.22,294.05 591.00,292.87 591.00,284.46 L 591.00 275.00 L 595.50 275.00 C599.81,275.00 600.00,274.88 600.00,272.06 C600.00,269.31 599.72,269.09 595.75,268.81 C591.52,268.50 591.50,268.48 591.19,264.25 C590.89,260.02 590.87,260.00 586.94,260.00 L 583.00 260.00 L 583.00 264.50 C583.00,268.63 582.80,269.00 580.50,269.00 C578.39,269.00 578.00,269.47 578.00,272.00 C578.00,274.50 578.40,275.00 580.41,275.00 C582.79,275.00 582.83,275.14 583.16,285.90 C583.45,295.09 583.81,297.14 585.50,299.02 C588.90,302.79 594.20,304.03 598.07,301.96 ZM 626.50 301.00 C631.23,298.59 632.00,298.53 632.00,300.56 C632.00,301.72 632.84,302.05 635.25,301.81 L 638.50 301.50 L 638.77 285.25 L 639.05 269.00 L 635.52 269.00 C633.06,269.00 632.00,269.45 632.00,270.50 C632.00,272.48 631.46,272.40 628.04,269.87 C625.67,268.12 624.14,267.82 619.27,268.17 C608.92,268.92 604.00,274.59 604.00,285.75 C604.00,293.16 606.62,297.54 612.97,300.75 C618.46,303.52 621.44,303.58 626.50,301.00 ZM 674.04 300.70 C685.08,294.86 685.99,276.48 675.56,270.04 C671.06,267.26 662.91,267.28 658.37,270.08 L 655.00 272.16 L 655.00 263.58 L 655.00 255.00 L 651.50 255.00 L 648.00 255.00 L 648.00 278.50 L 648.00 302.00 L 651.09 302.00 C653.30,302.00 654.33,301.45 654.69,300.08 C655.17,298.23 655.37,298.25 659.74,300.58 C665.42,303.60 668.50,303.62 674.04,300.70 ZM 751.17 300.56 C754.00,299.15 754.39,299.16 755.44,300.59 C756.17,301.58 757.70,302.05 759.55,301.84 L 762.50 301.50 L 762.77 285.25 L 763.05 269.00 L 759.02 269.00 C756.13,269.00 755.00,269.42 755.00,270.49 C755.00,271.70 754.40,271.61 751.75,269.99 C747.15,267.18 739.32,267.31 734.99,270.25 C729.08,274.27 727.50,277.36 727.50,284.90 C727.50,290.81 727.86,292.13 730.38,295.44 C735.73,302.44 743.55,304.37 751.17,300.56 ZM 549.00 290.16 C549.46,279.75 549.70,278.66 551.86,276.91 C555.23,274.19 560.52,274.43 563.55,277.45 C565.86,279.77 566.00,280.56 566.00,291.01 L 566.00 302.12 L 569.67 301.81 L 573.33 301.50 L 573.31 295.00 C573.25,274.82 573.29,275.09 569.48,271.28 C566.07,267.87 565.79,267.78 559.54,268.18 C555.11,268.46 552.47,269.17 551.06,270.45 C549.23,272.11 549.00,272.13 549.00,270.65 C549.00,269.43 548.09,269.00 545.55,269.00 L 542.10 269.00 L 541.80 283.86 C541.42,302.49 541.36,302.19 545.33,301.81 L 548.50 301.50 L 549.00 290.16 ZM 696.04 291.50 C696.34,286.00 696.93,280.78 697.35,279.89 C698.26,277.96 701.56,276.19 705.00,275.79 C707.10,275.55 707.55,274.90 707.81,271.75 C708.10,268.20 707.96,268.00 705.20,268.00 C703.59,268.00 701.13,268.90 699.73,270.00 C696.68,272.39 696.00,272.49 696.00,270.50 C696.00,269.45 694.94,269.00 692.50,269.00 L 689.00 269.00 L 689.00 285.56 L 689.00 302.13 L 692.25 301.81 L 695.50 301.50 L 696.04 291.50 ZM 720.00 285.50 L 720.00 269.00 L 716.50 269.00 L 713.00 269.00 L 713.00 285.50 L 713.00 302.00 L 716.50 302.00 L 720.00 302.00 L 720.00 285.50 ZM 720.30 260.90 C720.84,260.03 720.99,258.11 720.63,256.65 C719.47,252.03 712.00,253.49 712.00,258.34 C712.00,262.41 718.16,264.32 720.30,260.90 ZM 379.77 242.43 C386.78,237.87 388.00,233.84 388.00,215.38 C388.00,200.85 387.89,200.00 386.07,200.00 C384.25,200.00 384.12,200.97 383.82,215.93 C383.53,230.17 383.28,232.15 381.44,234.62 C376.26,241.54 369.22,243.15 362.44,238.97 C356.65,235.38 356.00,233.03 356.00,215.55 C356.00,200.67 355.91,200.00 354.00,200.00 C352.08,200.00 352.00,200.67 352.00,216.10 C352.00,228.88 352.33,232.90 353.62,235.62 C357.81,244.43 371.29,247.94 379.77,242.43 ZM 513.06 242.84 C517.62,240.28 519.71,237.21 517.47,236.35 C516.57,236.01 514.95,236.63 513.70,237.81 C511.18,240.17 506.83,242.00 503.75,242.00 C498.35,242.00 490.00,235.38 490.00,231.10 C490.00,230.35 494.79,230.00 505.00,230.00 L 520.00 230.00 L 519.99 226.25 C519.99,221.74 516.53,215.64 512.44,212.95 C510.29,211.54 507.75,211.01 502.98,211.01 C492.03,211.00 485.88,216.86 485.79,227.41 C485.73,233.57 487.77,237.96 492.25,241.36 C498.70,246.26 506.02,246.78 513.06,242.84 ZM 570.73 243.15 C573.58,241.62 575.00,238.93 575.00,235.07 C575.00,230.77 572.22,228.45 564.22,226.07 C560.42,224.94 556.53,223.14 555.57,222.08 C550.59,216.58 561.18,211.46 569.08,215.54 C571.99,217.04 574.00,216.81 574.00,214.97 C574.00,213.64 569.09,211.37 564.77,210.71 C557.43,209.58 550.00,213.77 550.00,219.04 C550.00,223.70 553.45,226.78 561.32,229.13 C565.27,230.31 569.06,231.72 569.75,232.26 C571.85,233.92 571.16,237.73 568.37,239.93 C565.04,242.55 560.53,242.57 555.47,239.99 C550.57,237.48 547.85,238.07 550.54,241.04 C554.40,245.31 564.71,246.39 570.73,243.15 ZM 620.26 243.33 C621.78,242.56 623.58,241.05 624.25,239.97 C626.01,237.16 626.70,237.53 626.59,241.22 C626.53,243.54 626.99,244.55 628.25,244.80 C629.88,245.12 630.00,243.49 630.00,221.57 C630.00,198.67 629.94,198.00 628.00,198.00 C626.14,198.00 626.00,198.67 626.00,207.60 L 626.00 217.21 L 622.47 214.10 C619.31,211.33 618.25,211.00 612.61,211.00 C604.81,211.00 600.51,213.51 597.25,219.97 C594.45,225.51 594.40,230.12 597.07,235.65 C601.25,244.28 611.57,247.70 620.26,243.33 ZM 707.65 242.85 C709.38,241.81 711.15,240.18 711.57,239.23 C712.17,237.90 712.47,238.30 712.92,241.00 C713.28,243.19 714.06,244.50 715.00,244.50 C716.28,244.50 716.54,241.13 716.77,221.25 C717.03,198.51 716.99,198.00 715.02,198.00 C713.13,198.00 713.00,198.64 713.00,207.57 L 713.00 217.15 L 709.27 214.07 C705.93,211.32 704.85,211.00 698.81,211.00 C692.68,211.00 691.75,211.28 688.48,214.15 C686.51,215.88 684.25,218.56 683.45,220.10 C681.62,223.63 681.58,231.08 683.37,235.28 C687.26,244.40 698.98,248.06 707.65,242.85 ZM 402.00 232.26 C402.47,220.71 402.65,219.89 405.13,217.41 C408.25,214.29 415.14,213.21 419.00,215.22 C423.51,217.58 425.00,222.32 425.00,234.32 C425.00,244.09 425.17,245.11 426.75,244.81 C428.23,244.53 428.54,243.12 428.79,235.55 C429.14,224.92 427.72,217.40 424.78,214.26 C420.21,209.41 409.53,209.27 404.49,214.01 L 402.16 216.19 L 401.83 213.86 C401.65,212.57 400.71,211.37 399.75,211.19 C398.14,210.88 398.00,212.21 398.00,228.00 C398.00,243.79 398.14,245.12 399.75,244.81 C401.27,244.52 401.57,242.87 402.00,232.26 ZM 442.00 228.00 C442.00,211.67 441.92,211.00 440.00,211.00 C438.08,211.00 438.00,211.67 438.00,227.33 C438.00,236.32 438.30,243.97 438.67,244.33 C439.03,244.70 439.93,245.00 440.67,245.00 C441.73,245.00 442.00,241.50 442.00,228.00 ZM 474.96 229.25 C478.94,220.59 482.42,212.94 482.70,212.25 C483.02,211.48 482.39,211.00 481.04,211.00 C479.33,211.00 478.25,212.41 475.89,217.75 C467.91,235.83 466.46,238.93 466.00,238.95 C465.73,238.96 462.76,232.78 459.42,225.23 C454.56,214.27 452.89,211.44 451.17,211.18 C449.97,211.00 449.00,211.09 449.00,211.38 C449.00,211.66 451.42,217.20 454.37,223.70 C457.33,230.19 460.68,237.64 461.82,240.25 C465.35,248.36 466.70,247.24 474.96,229.25 ZM 532.00 233.42 C532.64,219.43 534.17,216.75 542.49,215.04 C544.19,214.69 545.63,213.68 545.82,212.71 C546.42,209.58 539.64,210.50 535.53,214.10 L 532.00 217.21 L 532.00 214.10 C532.00,211.67 531.57,211.00 530.00,211.00 C528.08,211.00 528.00,211.67 528.00,227.33 C528.00,236.32 528.31,243.98 528.69,244.35 C530.67,246.34 531.54,243.47 532.00,233.42 ZM 586.77 227.67 C587.04,211.51 586.99,211.00 585.02,211.00 C583.07,211.00 583.00,211.60 583.00,227.33 C583.00,236.32 583.31,243.98 583.69,244.35 C585.91,246.58 586.52,243.29 586.77,227.67 ZM 662.87 243.57 C664.40,242.78 666.23,241.43 666.95,240.57 C668.84,238.28 669.83,238.64 670.18,241.75 C670.37,243.39 671.11,244.50 672.00,244.50 C673.26,244.50 673.54,241.85 673.77,227.75 C674.04,211.51 673.99,211.00 672.02,211.00 C670.44,211.00 670.00,211.65 670.00,214.00 C670.00,217.13 668.62,218.05 667.66,215.55 C665.92,211.03 652.80,209.18 646.92,212.62 C640.53,216.36 637.34,224.12 639.05,231.74 C641.41,242.20 653.71,248.30 662.87,243.57 ZM 588.00 200.35 C588.00,198.23 585.05,197.52 583.35,199.22 C582.03,200.55 582.05,200.90 583.53,202.39 C584.83,203.69 585.53,203.81 586.61,202.91 C587.37,202.28 588.00,201.12 588.00,200.35 ZM 442.81 200.74 C443.21,198.67 440.32,197.28 438.80,198.80 C437.28,200.32 438.67,203.21 440.74,202.81 C441.69,202.63 442.63,201.69 442.81,200.74 ZM 362.02 297.25 C356.54,294.49 353.73,289.52 354.28,283.56 C354.66,279.46 355.36,278.06 358.36,275.31 C361.58,272.36 362.60,272.00 367.76,272.00 C371.39,272.00 374.39,272.58 375.78,273.56 C383.70,279.11 382.30,293.89 373.51,297.56 C368.99,299.45 366.25,299.37 362.02,297.25 ZM 397.60 283.17 C396.77,281.81 400.29,275.80 403.14,273.71 C406.16,271.49 414.37,271.06 417.85,272.92 C420.29,274.23 424.38,281.57 423.48,283.03 C422.75,284.21 398.33,284.34 397.60,283.17 ZM 511.38 294.59 C507.48,292.86 505.00,289.41 505.00,285.73 C505.00,276.58 515.00,271.77 521.92,277.59 C524.50,279.76 525.00,280.89 525.00,284.57 C525.00,292.41 518.04,297.53 511.38,294.59 ZM 618.21 294.86 C614.59,293.83 611.01,289.01 611.00,285.15 C610.99,276.48 621.55,271.95 628.11,277.80 C630.62,280.05 631.27,281.44 631.36,284.80 C631.45,288.22 630.92,289.53 628.48,291.90 C624.86,295.42 622.53,296.09 618.21,294.86 ZM 662.02 294.88 C656.15,292.54 653.64,286.70 656.02,280.94 C657.70,276.89 660.65,275.00 665.30,275.00 C675.60,275.00 678.98,289.93 669.68,294.35 C665.73,296.22 665.43,296.24 662.02,294.88 ZM 741.38 294.55 C737.11,292.71 735.00,289.34 735.00,284.37 C735.00,273.08 751.82,271.46 754.58,282.48 C756.59,290.46 748.66,297.71 741.38,294.55 ZM 490.00 223.99 C490.00,222.88 491.46,220.39 493.25,218.45 C495.91,215.57 497.41,214.84 501.50,214.42 C507.48,213.81 510.53,215.18 513.72,219.91 C517.71,225.84 517.43,226.00 503.00,226.00 C490.64,226.00 490.00,225.90 490.00,223.99 ZM 607.33 240.06 C602.29,237.77 599.90,234.39 599.32,228.74 C598.32,218.87 608.87,211.41 618.28,215.34 C628.76,219.72 628.56,236.16 617.96,240.40 C612.96,242.40 612.44,242.38 607.33,240.06 ZM 695.46 240.97 C693.79,240.47 691.13,238.70 689.55,237.05 C685.73,233.07 684.90,225.06 687.83,220.42 C690.55,216.09 696.17,213.61 701.38,214.44 C706.77,215.30 709.33,217.07 711.35,221.33 C716.66,232.52 707.00,244.47 695.46,240.97 ZM 651.45 240.59 C649.77,239.86 647.19,237.82 645.70,236.06 C641.90,231.54 641.84,223.53 645.57,219.09 C650.85,212.82 660.61,212.52 665.83,218.46 C669.53,222.67 670.52,226.87 668.95,231.75 C667.42,236.51 665.34,238.92 661.28,240.64 C657.33,242.31 655.38,242.30 651.45,240.59 Z" fill="rgb(254,254,254)"/>
</g>
</svg>